%
M48
M72
T01C0.0236
T02C0.0866
T03C0.1339
%
T01
X5416Y1400
X8960Y6715
X8960Y10259
X8960Y13802
X8960Y24826
X8960Y28369
X8960Y31912
X8960Y42936
X8960Y46479
X8960Y50023
X8960Y61046
X8960Y64589
X8960Y68133
X8960Y79156
X8960Y82700
X8960Y86243
X8960Y97267
X8960Y100810
X8960Y104353
X12424Y110259
X12897Y104353
X12897Y100810
X12897Y97267
X12897Y86243
X12897Y82700
X12897Y79156
X12897Y68133
X12897Y64589
X12897Y61046
X12897Y50023
X12897Y46479
X12897Y42936
X12897Y31912
X12897Y28211
X12897Y24865
X12897Y13802
X12897Y10259
X12897Y6715
X12424Y1400
X19983Y6715
X19983Y10259
X19983Y13802
X19983Y24826
X19983Y28369
X19983Y31912
X19983Y42936
X19983Y46479
X19983Y50023
X19983Y61046
X19983Y64589
X19983Y68133
X19983Y79156
X19983Y82700
X19983Y86243
X19983Y97267
X19983Y100810
X19983Y104353
X23920Y104353
X24747Y101361
X24747Y100259
X23920Y100810
X23920Y97267
X25849Y100259
X25849Y101361
X27463Y110259
X23920Y86243
X23920Y82700
X23920Y79156
X23920Y68133
X23920Y64589
X23920Y61046
X23920Y50023
X23920Y46479
X23920Y42936
X23920Y31912
X24668Y30889
X24668Y29786
X23920Y28369
X23920Y24826
X25771Y29786
X25771Y30889
X23920Y13802
X23920Y10259
X23920Y6715
X27463Y1400
X5416Y110259
T02
X2660Y110554
X30219Y110554
T03
X1873Y1597
X2660Y38605
X2660Y92936
X30219Y92936
X30219Y38605
X31007Y1597
M30
