G75*
G70*
%OFA0B0*%
%FSLAX24Y24*%
%IPPOS*%
%LPD*%
%AMOC8*
5,1,8,0,0,1.08239X$1,22.5*
%
%ADD10C,0.0160*%
%ADD11R,2.2835X0.1181*%
%ADD12R,0.1969X0.1969*%
%ADD13R,0.1000X0.0500*%
%ADD14C,0.1000*%
%ADD15C,0.0396*%
%ADD16C,0.0500*%
%ADD17C,0.1969*%
%ADD18C,0.1575*%
%ADD19R,0.0396X0.0396*%
D10*
X000298Y000416D02*
X032582Y000416D01*
X032582Y111834D01*
X000298Y111834D01*
X000298Y000416D01*
X015121Y034038D02*
X011282Y037877D01*
X011282Y039255D02*
X015318Y035219D01*
X026125Y035219D01*
X029038Y032306D01*
X029038Y029353D02*
X029038Y028369D01*
X029038Y029353D02*
X024353Y034038D01*
X015121Y034038D01*
X012483Y040633D02*
X021991Y050141D01*
X021991Y092030D01*
X028802Y098841D01*
X028960Y098841D01*
X028960Y101282D02*
X019432Y091755D01*
X019432Y050948D01*
X009708Y041223D01*
X011282Y040633D02*
X012483Y040633D01*
X014708Y001400D02*
X027463Y001400D01*
X028960Y101282D02*
X028960Y102778D01*
X027463Y110259D02*
X010062Y110259D01*
D11*
X016440Y110259D03*
X016440Y001400D03*
D12*
X025219Y030337D03*
X029038Y028369D03*
X029038Y032306D03*
X028960Y098841D03*
X028960Y102778D03*
X025298Y100810D03*
D13*
X009708Y041223D03*
X009708Y039944D03*
X009708Y038566D03*
X011282Y039255D03*
X011282Y037877D03*
X011282Y040633D03*
D14*
X009708Y038566D02*
X009708Y035889D01*
X010652Y034944D01*
X010652Y005456D01*
X014708Y001400D01*
X008723Y039944D02*
X006519Y042149D01*
X006519Y106715D01*
X010062Y110259D01*
D15*
X012424Y110259D03*
X005416Y110259D03*
X024747Y101361D03*
X024747Y100259D03*
X025849Y100259D03*
X025849Y101361D03*
X027463Y110259D03*
X025771Y030889D03*
X025771Y029786D03*
X024668Y029786D03*
X024668Y030889D03*
X027463Y001400D03*
X012424Y001400D03*
X005416Y001400D03*
D16*
X008723Y039944D02*
X009708Y039944D01*
D17*
X002660Y038605D03*
X001873Y001597D03*
X002660Y092936D03*
X030219Y092936D03*
X030219Y038605D03*
X031007Y001597D03*
D18*
X030219Y110554D03*
X002660Y110554D03*
D19*
X008960Y104353D03*
X008960Y100810D03*
X008960Y097267D03*
X008960Y086243D03*
X008960Y082700D03*
X008960Y079156D03*
X008960Y068133D03*
X008960Y064589D03*
X008960Y061046D03*
X008960Y050023D03*
X008960Y046479D03*
X008960Y042936D03*
X008960Y031912D03*
X008960Y028369D03*
X008960Y024826D03*
X008960Y013802D03*
X008960Y010259D03*
X008960Y006715D03*
X012897Y006715D03*
X012897Y010259D03*
X012897Y013802D03*
X012897Y024865D03*
X012897Y028211D03*
X012897Y031912D03*
X012897Y042936D03*
X012897Y046479D03*
X012897Y050023D03*
X012897Y061046D03*
X012897Y064589D03*
X012897Y068133D03*
X012897Y079156D03*
X012897Y082700D03*
X012897Y086243D03*
X012897Y097267D03*
X012897Y100810D03*
X012897Y104353D03*
X019983Y104353D03*
X019983Y100810D03*
X019983Y097267D03*
X019983Y086243D03*
X019983Y082700D03*
X019983Y079156D03*
X019983Y068133D03*
X019983Y064589D03*
X019983Y061046D03*
X019983Y050023D03*
X019983Y046479D03*
X019983Y042936D03*
X019983Y031912D03*
X019983Y028369D03*
X019983Y024826D03*
X019983Y013802D03*
X019983Y010259D03*
X019983Y006715D03*
X023920Y006715D03*
X023920Y010259D03*
X023920Y013802D03*
X023920Y024826D03*
X023920Y028369D03*
X023920Y031912D03*
X023920Y042936D03*
X023920Y046479D03*
X023920Y050023D03*
X023920Y061046D03*
X023920Y064589D03*
X023920Y068133D03*
X023920Y079156D03*
X023920Y082700D03*
X023920Y086243D03*
X023920Y097267D03*
X023920Y100810D03*
X023920Y104353D03*
M02*
