G75*
G70*
%OFA0B0*%
%FSLAX24Y24*%
%IPPOS*%
%LPD*%
%AMOC8*
5,1,8,0,0,1.08239X$1,22.5*
%
%ADD10R,2.2835X0.1181*%
%ADD11R,0.1969X0.1969*%
%ADD12R,0.1000X0.0500*%
%ADD13C,0.0160*%
%ADD14C,0.1969*%
%ADD15C,0.1575*%
%ADD16C,0.0396*%
%ADD17C,0.1000*%
%ADD18C,0.0500*%
D10*
X016479Y001282D03*
X016479Y110141D03*
D11*
X014511Y104432D03*
X016440Y100849D03*
X018448Y104432D03*
X028881Y017267D03*
X028881Y013330D03*
X025337Y015259D03*
D12*
X011755Y022641D03*
X011755Y024019D03*
X011755Y025397D03*
X010180Y025987D03*
X010180Y024708D03*
X010180Y023330D03*
D13*
X010180Y025987D02*
X010180Y027739D01*
X014511Y032070D01*
X014511Y104432D01*
X018448Y104432D02*
X018448Y035141D01*
X011755Y028448D01*
X011755Y025397D01*
X011755Y024019D02*
X012995Y024019D01*
X016834Y020180D01*
X025967Y020180D01*
X028881Y017267D01*
X028881Y014471D02*
X028881Y013330D01*
X028881Y014471D02*
X024786Y018566D01*
X015830Y018566D01*
X011755Y022641D01*
X007227Y026125D02*
X007227Y026282D01*
X013526Y001282D02*
X027542Y001282D01*
D14*
X001912Y001479D03*
X002700Y021164D03*
X002700Y074708D03*
X002700Y092030D03*
X030259Y092030D03*
X030259Y074708D03*
X030259Y021164D03*
X031046Y001479D03*
D15*
X029078Y110141D03*
X003881Y110141D03*
D16*
X005456Y110141D03*
X008999Y104235D03*
X008999Y100692D03*
X008999Y097149D03*
X008999Y086125D03*
X008999Y082582D03*
X008999Y079038D03*
X008999Y068015D03*
X008999Y064471D03*
X008999Y060928D03*
X008999Y049904D03*
X008999Y046361D03*
X008999Y042818D03*
X008999Y031794D03*
X008999Y028251D03*
X007424Y023920D03*
X008999Y013684D03*
X008999Y010141D03*
X008999Y006597D03*
X012463Y001282D03*
X012936Y006597D03*
X012936Y010141D03*
X012936Y013684D03*
X012936Y024708D03*
X012936Y028251D03*
X012936Y031794D03*
X012936Y042818D03*
X012936Y046361D03*
X012936Y049904D03*
X012936Y060928D03*
X012936Y064471D03*
X012936Y068015D03*
X012936Y079038D03*
X012936Y082582D03*
X012936Y086125D03*
X012936Y097149D03*
X012936Y100692D03*
X012936Y104235D03*
X012463Y110141D03*
X015849Y101440D03*
X015849Y100259D03*
X017030Y100259D03*
X017030Y101440D03*
X020023Y100692D03*
X020023Y097149D03*
X020023Y104235D03*
X023960Y104235D03*
X023960Y100692D03*
X023960Y097149D03*
X023960Y086125D03*
X023960Y082582D03*
X023960Y079038D03*
X023960Y068015D03*
X023960Y064471D03*
X023960Y060928D03*
X023960Y049904D03*
X023960Y046361D03*
X023960Y042818D03*
X023960Y031794D03*
X023960Y028251D03*
X023960Y024708D03*
X024747Y015849D03*
X024747Y014668D03*
X025928Y014668D03*
X025928Y015849D03*
X023960Y013684D03*
X023960Y010141D03*
X023960Y006597D03*
X027503Y001282D03*
X020023Y006597D03*
X020023Y010141D03*
X020023Y013684D03*
X020023Y024708D03*
X020023Y028251D03*
X020023Y031794D03*
X020023Y042818D03*
X020023Y046361D03*
X020023Y049904D03*
X020023Y060928D03*
X020023Y064471D03*
X020023Y068015D03*
X020023Y079038D03*
X020023Y082582D03*
X020023Y086125D03*
X027503Y110141D03*
X005456Y001282D03*
D17*
X010180Y004629D02*
X013526Y001282D01*
X010180Y004629D02*
X010180Y023330D01*
X010180Y024708D02*
X008645Y024708D01*
X007227Y026125D01*
X007227Y026282D02*
X007227Y106322D01*
X011046Y110141D01*
D18*
X027503Y110141D01*
M02*
