G75*
G70*
%OFA0B0*%
%FSLAX24Y24*%
%IPPOS*%
%LPD*%
%AMOC8*
5,1,8,0,0,1.08239X$1,22.5*
%
%ADD10C,0.0160*%
%ADD11R,0.0110X0.0256*%
%ADD12R,0.0256X0.0110*%
%ADD13R,0.0276X0.0354*%
%ADD14R,0.0354X0.0276*%
%ADD15C,0.0555*%
%ADD16C,0.0000*%
%ADD17C,0.0100*%
%ADD18C,0.0554*%
%ADD19C,0.1345*%
D10*
X000180Y000190D02*
X000180Y013084D01*
X010741Y013084D01*
X010741Y015052D01*
X026489Y015052D01*
X026489Y013084D01*
X037050Y013084D01*
X037050Y000190D01*
X037050Y000180D01*
X037050Y000190D02*
X033379Y000190D01*
X033379Y001765D01*
X003851Y001765D01*
X003851Y000190D01*
X000180Y000190D01*
D11*
X019851Y007324D03*
X020048Y007324D03*
X020245Y007324D03*
X020442Y007324D03*
X020442Y008402D03*
X020245Y008402D03*
X020048Y008402D03*
X019851Y008402D03*
D12*
X019607Y008158D03*
X019607Y007961D03*
X019607Y007765D03*
X019607Y007568D03*
X020686Y007568D03*
X020686Y007765D03*
X020686Y007961D03*
X020686Y008158D03*
D13*
X020891Y006863D03*
X021402Y006863D03*
X020902Y009513D03*
X020391Y009513D03*
D14*
X019647Y009619D03*
X019647Y009107D03*
X018647Y008119D03*
X018147Y008119D03*
X018147Y007607D03*
X018647Y007607D03*
D15*
X004454Y007316D03*
X004454Y008103D03*
X004454Y008891D03*
X004454Y006528D03*
D16*
X005271Y005643D02*
X005273Y005664D01*
X005279Y005684D01*
X005288Y005704D01*
X005300Y005721D01*
X005315Y005735D01*
X005333Y005747D01*
X005353Y005755D01*
X005373Y005760D01*
X005394Y005761D01*
X005415Y005758D01*
X005435Y005752D01*
X005454Y005741D01*
X005471Y005728D01*
X005484Y005712D01*
X005495Y005694D01*
X005503Y005674D01*
X005507Y005654D01*
X005507Y005632D01*
X005503Y005612D01*
X005495Y005592D01*
X005484Y005574D01*
X005471Y005558D01*
X005454Y005545D01*
X005435Y005534D01*
X005415Y005528D01*
X005394Y005525D01*
X005373Y005526D01*
X005353Y005531D01*
X005333Y005539D01*
X005315Y005551D01*
X005300Y005565D01*
X005288Y005582D01*
X005279Y005602D01*
X005273Y005622D01*
X005271Y005643D01*
X003401Y005643D02*
X003403Y005664D01*
X003409Y005684D01*
X003418Y005704D01*
X003430Y005721D01*
X003445Y005735D01*
X003463Y005747D01*
X003483Y005755D01*
X003503Y005760D01*
X003524Y005761D01*
X003545Y005758D01*
X003565Y005752D01*
X003584Y005741D01*
X003601Y005728D01*
X003614Y005712D01*
X003625Y005694D01*
X003633Y005674D01*
X003637Y005654D01*
X003637Y005632D01*
X003633Y005612D01*
X003625Y005592D01*
X003614Y005574D01*
X003601Y005558D01*
X003584Y005545D01*
X003565Y005534D01*
X003545Y005528D01*
X003524Y005525D01*
X003503Y005526D01*
X003483Y005531D01*
X003463Y005539D01*
X003445Y005551D01*
X003430Y005565D01*
X003418Y005582D01*
X003409Y005602D01*
X003403Y005622D01*
X003401Y005643D01*
X003401Y009776D02*
X003403Y009797D01*
X003409Y009817D01*
X003418Y009837D01*
X003430Y009854D01*
X003445Y009868D01*
X003463Y009880D01*
X003483Y009888D01*
X003503Y009893D01*
X003524Y009894D01*
X003545Y009891D01*
X003565Y009885D01*
X003584Y009874D01*
X003601Y009861D01*
X003614Y009845D01*
X003625Y009827D01*
X003633Y009807D01*
X003637Y009787D01*
X003637Y009765D01*
X003633Y009745D01*
X003625Y009725D01*
X003614Y009707D01*
X003601Y009691D01*
X003584Y009678D01*
X003565Y009667D01*
X003545Y009661D01*
X003524Y009658D01*
X003503Y009659D01*
X003483Y009664D01*
X003463Y009672D01*
X003445Y009684D01*
X003430Y009698D01*
X003418Y009715D01*
X003409Y009735D01*
X003403Y009755D01*
X003401Y009776D01*
X005271Y009776D02*
X005273Y009797D01*
X005279Y009817D01*
X005288Y009837D01*
X005300Y009854D01*
X005315Y009868D01*
X005333Y009880D01*
X005353Y009888D01*
X005373Y009893D01*
X005394Y009894D01*
X005415Y009891D01*
X005435Y009885D01*
X005454Y009874D01*
X005471Y009861D01*
X005484Y009845D01*
X005495Y009827D01*
X005503Y009807D01*
X005507Y009787D01*
X005507Y009765D01*
X005503Y009745D01*
X005495Y009725D01*
X005484Y009707D01*
X005471Y009691D01*
X005454Y009678D01*
X005435Y009667D01*
X005415Y009661D01*
X005394Y009658D01*
X005373Y009659D01*
X005353Y009664D01*
X005333Y009672D01*
X005315Y009684D01*
X005300Y009698D01*
X005288Y009715D01*
X005279Y009735D01*
X005273Y009755D01*
X005271Y009776D01*
D17*
X004454Y008891D02*
X006489Y008891D01*
X007837Y010239D01*
X017660Y010239D01*
X017670Y010249D01*
X019875Y010249D01*
X019963Y010160D01*
X019963Y009274D01*
X020048Y009190D01*
X020048Y008402D01*
X020052Y008202D01*
X020052Y008152D01*
X020101Y008133D01*
X020397Y008133D01*
X020442Y008188D01*
X020442Y008402D01*
X020442Y008975D01*
X020574Y009107D01*
X020839Y009107D01*
X020869Y009137D01*
X020908Y009097D01*
X022513Y009097D01*
X022641Y008969D01*
X022641Y007217D01*
X022286Y006863D01*
X021402Y006863D01*
X020891Y006863D02*
X020871Y006883D01*
X020544Y006883D01*
X020442Y006985D01*
X020442Y007324D01*
X020446Y007339D01*
X020446Y007542D01*
X020377Y007591D01*
X020072Y007591D01*
X019944Y007591D01*
X019895Y007641D01*
X019895Y008084D01*
X019826Y008162D01*
X019613Y008162D01*
X019607Y008158D01*
X019603Y008162D01*
X019343Y008162D01*
X019300Y008119D01*
X018647Y008119D01*
X018147Y008119D01*
X018131Y008103D01*
X004454Y008103D01*
X004454Y007316D02*
X014343Y007316D01*
X015249Y006410D01*
X014609Y005633D02*
X013713Y006528D01*
X004454Y006528D01*
X014609Y005633D02*
X018093Y005633D01*
X018162Y005702D01*
X018162Y007591D01*
X018147Y007607D01*
X018647Y007607D02*
X019166Y007607D01*
X019097Y007538D01*
X019097Y006578D01*
X019851Y007324D02*
X019841Y005599D01*
X019599Y005367D01*
X018517Y005377D01*
X018162Y005643D01*
X018162Y005702D01*
X020048Y007324D02*
X020048Y007568D01*
X020072Y007591D01*
X019607Y007568D02*
X019591Y007552D01*
X019314Y007552D01*
X019259Y007607D01*
X019166Y007607D01*
X018147Y008119D02*
X018141Y008113D01*
X019851Y008402D02*
X019851Y008902D01*
X019647Y009107D01*
X020245Y009367D02*
X020391Y009513D01*
X020245Y009367D02*
X020245Y008402D01*
X020686Y008158D02*
X021011Y008158D01*
X021981Y008162D01*
X020691Y008163D02*
X020686Y008158D01*
X020869Y009137D02*
X020908Y009176D01*
X020908Y009507D01*
X020902Y009513D01*
X019647Y009619D02*
X019627Y009599D01*
X018920Y009599D01*
X018812Y009491D01*
X018812Y009028D01*
D18*
X018812Y009028D03*
X021981Y008162D03*
X019097Y006578D03*
X015249Y006410D03*
D19*
X002016Y001765D03*
X013103Y014068D03*
X024127Y014068D03*
X035215Y001765D03*
M02*
