G75*
G70*
%OFA0B0*%
%FSLAX24Y24*%
%IPPOS*%
%LPD*%
%AMOC8*
5,1,8,0,0,1.08239X$1,22.5*
%
%ADD10R,0.0190X0.0336*%
%ADD11R,0.0336X0.0190*%
%ADD12R,0.0356X0.0434*%
%ADD13R,0.0434X0.0356*%
%ADD14C,0.0635*%
%ADD15C,0.0316*%
%ADD16C,0.0634*%
%ADD17C,0.1425*%
D10*
X019851Y007324D03*
X020048Y007324D03*
X020245Y007324D03*
X020442Y007324D03*
X020442Y008402D03*
X020245Y008402D03*
X020048Y008402D03*
X019851Y008402D03*
D11*
X019607Y008158D03*
X019607Y007961D03*
X019607Y007765D03*
X019607Y007568D03*
X020686Y007568D03*
X020686Y007765D03*
X020686Y007961D03*
X020686Y008158D03*
D12*
X020891Y006863D03*
X021402Y006863D03*
X020902Y009513D03*
X020391Y009513D03*
D13*
X019647Y009619D03*
X019647Y009107D03*
X018647Y008119D03*
X018147Y008119D03*
X018147Y007607D03*
X018647Y007607D03*
D14*
X004454Y007316D03*
X004454Y008103D03*
X004454Y008891D03*
X004454Y006528D03*
D15*
X005389Y005643D03*
X003519Y005643D03*
X003519Y009776D03*
X005389Y009776D03*
D16*
X015249Y006410D03*
X019097Y006578D03*
X021981Y008162D03*
X018812Y009028D03*
D17*
X002016Y001765D03*
X013103Y014068D03*
X024127Y014068D03*
X035215Y001765D03*
M02*
