%
M48
M72
T01C0.0100
T02C0.0197
T03C0.0236
T04C0.0315
T05C0.0320
T06C0.0400
T07C0.1299
%
T01
X13082Y31123
T02
X14419Y31270
X25447Y19439
X21665Y16101
X21023Y15271
X21675Y13937
X32925Y13550
X32925Y14337
X33712Y14337
X33712Y13550
X33712Y12762
X33712Y11975
X32925Y11975
X32925Y12762
X32925Y15125
X32925Y15912
X33712Y15912
X33712Y15125
X33712Y16700
X33712Y17487
X32925Y17487
X32925Y16700
X32931Y19171
X32931Y19958
X32931Y20745
X33719Y20745
X33719Y19958
X33719Y19171
X33719Y21533
X33719Y22320
X33719Y23108
X34204Y23425
X33719Y23895
X33719Y24682
X32931Y24682
X32931Y23895
X32931Y23108
X32931Y22320
X32931Y21533
X33447Y29248
X32971Y33082
T03
X34237Y30177
X32373Y28607
X31243Y27972
X30183Y26691
X28682Y27070
X28719Y26186
X27690Y26117
X27667Y27067
X26361Y25698
X24948Y25698
X25014Y26736
X25239Y27436
X26147Y27449
X25315Y28873
X25312Y30144
X25287Y30853
X24489Y30853
X24495Y30147
X23285Y30076
X27046Y30118
X28357Y30807
X32922Y26404
X34250Y26941
X35175Y27663
X33333Y23490
X30357Y20940
X30063Y22302
X29915Y24216
X28701Y25082
X28015Y24554
X27873Y23535
X25075Y23351
X25761Y20628
X24688Y19049
X24447Y18159
X23879Y18050
X23139Y18011
X22454Y18055
X21660Y18033
X19691Y18122
X18763Y18100
X17370Y20595
X17913Y21502
X18785Y23246
X19293Y25234
X18512Y27215
X18952Y27693
X18513Y28184
X18848Y28756
X19165Y29210
X18368Y29644
X12371Y23679
X11627Y22672
X11637Y21855
X11610Y21257
X11569Y20608
X11603Y19772
X10154Y21288
X10150Y21855
X9140Y20751
X9959Y18791
X11320Y17946
X9906Y17094
X8395Y13859
X6453Y18363
X4800Y18381
X9846Y24704
X11534Y24646
X11538Y25166
X11553Y25679
X11462Y26728
X11731Y27230
X11485Y27743
X11718Y28242
X11364Y28713
X11668Y29225
X11630Y29787
X15871Y21842
X14412Y19825
X13465Y20516
X13458Y18367
X14413Y16951
X19691Y14853
X23168Y15891
X23860Y15862
X24487Y15767
X25332Y15905
X25332Y13944
X30344Y18206
X31921Y19099
T04
X29962Y19800
X28659Y19889
X21038Y19933
X19846Y26206
X11891Y26208
X6428Y30004
T05
X16808Y15133
X16808Y14133
T06
X16905Y32296
X15905Y32296
X15905Y33296
X16905Y33296
X16908Y34293
X15908Y34293
X15908Y35293
X16908Y35293
X17908Y35293
X18908Y35293
X19908Y35293
X20908Y35293
X21908Y35293
X22908Y35293
X23908Y35293
X24908Y35293
X25908Y35293
X26908Y35293
X27908Y35293
X28908Y35293
X29908Y35293
X30908Y35293
X30908Y34293
X30905Y33296
X30905Y32296
X29905Y32296
X28905Y32296
X28905Y33296
X29905Y33296
X29908Y34293
X28908Y34293
X27908Y34293
X27905Y33296
X27905Y32296
X26905Y32296
X26905Y33296
X26908Y34293
X25908Y34293
X24908Y34293
X24905Y33296
X24905Y32296
X25905Y32296
X25905Y33296
X23905Y33296
X23905Y32296
X22905Y32296
X22905Y33296
X22908Y34293
X23908Y34293
X21908Y34293
X20908Y34293
X20905Y33296
X20905Y32296
X21905Y32296
X21905Y33296
X19905Y33296
X19905Y32296
X18905Y32296
X18905Y33296
X18908Y34293
X19908Y34293
X17908Y34293
X17905Y33296
X17905Y32296
X14905Y32296
X14905Y33296
X14908Y34293
X14908Y35293
X13908Y35293
X13908Y34293
X13905Y33296
X13905Y32296
X12905Y32296
X11905Y32296
X11905Y33296
X12905Y33296
X12908Y34293
X11908Y34293
X11908Y35293
X12908Y35293
X10908Y35293
X10908Y34293
X10905Y33296
X10905Y32296
X9905Y32296
X9905Y33296
X9908Y34293
X9908Y35293
X8908Y35293
X8908Y34293
X8905Y33296
X8905Y32296
X7905Y32296
X6905Y32296
X6905Y33296
X7905Y33296
X7908Y34293
X6908Y34293
X6908Y35293
X7908Y35293
X5908Y35293
X5908Y34293
X5905Y33296
X5905Y32296
T07
X2302Y1462
X2302Y1462
X33799Y1464
X33802Y1462
X32802Y35212
X32802Y35214
X3802Y35212
X3800Y35212
M30
