%
M48
M72
T01C0.0320
T02C0.0394
T03C0.0433
T04C0.0440
%
T01
X2760Y2760
X4760Y2760
X8760Y2760
X8760Y3760
X8760Y4760
X10260Y6260
X12260Y6260
X12260Y4760
X12260Y3760
X12260Y2760
X15760Y2760
X15760Y3760
X15760Y4760
X18760Y4760
X18760Y2760
X18760Y6760
X18760Y8760
X19260Y10760
X17260Y10760
X15260Y10760
X15260Y12760
X17260Y13260
X19260Y13260
X20760Y15760
X16760Y15760
X13260Y16260
X9260Y16260
X4760Y13760
X2760Y13760
X2760Y8760
X2760Y7760
X4760Y7760
X4760Y8760
X23260Y9760
X23260Y4760
T02
X23760Y20760
X23760Y21760
X11760Y22260
X10760Y22260
T03
X23260Y13260
X23260Y1760
T04
X13260Y8760
X13260Y11260
X13260Y13760
X9260Y13760
X9260Y11260
X9260Y8760
X9260Y19260
X13260Y19260
M30
