G75*
G70*
%OFA0B0*%
%FSLAX24Y24*%
%IPPOS*%
%LPD*%
%AMOC8*
5,1,8,0,0,1.08239X$1,22.5*
%
%ADD10C,0.0000*%
%ADD11C,0.0060*%
%ADD12C,0.0240*%
%ADD13C,0.0050*%
%ADD14R,0.0240X0.0340*%
%ADD15C,0.0120*%
%ADD16R,0.0200X0.1000*%
%ADD17R,0.0750X0.0300*%
%ADD18R,0.0200X0.0800*%
%ADD19R,0.0750X0.0200*%
%ADD20C,0.0080*%
%ADD21C,0.0040*%
D10*
X000260Y000260D02*
X000260Y023630D01*
X025752Y023630D01*
X025752Y000260D01*
X000260Y000260D01*
D11*
X002410Y004010D02*
X003110Y004010D01*
X003127Y004012D01*
X003144Y004016D01*
X003160Y004023D01*
X003174Y004033D01*
X003187Y004046D01*
X003197Y004060D01*
X003204Y004076D01*
X003208Y004093D01*
X003210Y004110D01*
X003210Y004260D01*
X003160Y004310D01*
X003160Y006210D01*
X003210Y006260D01*
X003210Y006410D01*
X003208Y006427D01*
X003204Y006444D01*
X003197Y006460D01*
X003187Y006474D01*
X003174Y006487D01*
X003160Y006497D01*
X003144Y006504D01*
X003127Y006508D01*
X003110Y006510D01*
X002410Y006510D01*
X002393Y006508D01*
X002376Y006504D01*
X002360Y006497D01*
X002346Y006487D01*
X002333Y006474D01*
X002323Y006460D01*
X002316Y006444D01*
X002312Y006427D01*
X002310Y006410D01*
X002310Y006260D01*
X002360Y006210D01*
X002360Y004310D01*
X002310Y004260D01*
X002310Y004110D01*
X002312Y004093D01*
X002316Y004076D01*
X002323Y004060D01*
X002333Y004046D01*
X002346Y004033D01*
X002360Y004023D01*
X002376Y004016D01*
X002393Y004012D01*
X002410Y004010D01*
X004310Y004110D02*
X004310Y004260D01*
X004360Y004310D01*
X004360Y006210D01*
X004310Y006260D01*
X004310Y006410D01*
X004312Y006427D01*
X004316Y006444D01*
X004323Y006460D01*
X004333Y006474D01*
X004346Y006487D01*
X004360Y006497D01*
X004376Y006504D01*
X004393Y006508D01*
X004410Y006510D01*
X005110Y006510D01*
X005127Y006508D01*
X005144Y006504D01*
X005160Y006497D01*
X005174Y006487D01*
X005187Y006474D01*
X005197Y006460D01*
X005204Y006444D01*
X005208Y006427D01*
X005210Y006410D01*
X005210Y006260D01*
X005160Y006210D01*
X005160Y004310D01*
X005210Y004260D01*
X005210Y004110D01*
X005208Y004093D01*
X005204Y004076D01*
X005197Y004060D01*
X005187Y004046D01*
X005174Y004033D01*
X005160Y004023D01*
X005144Y004016D01*
X005127Y004012D01*
X005110Y004010D01*
X004410Y004010D01*
X004393Y004012D01*
X004376Y004016D01*
X004360Y004023D01*
X004346Y004033D01*
X004333Y004046D01*
X004323Y004060D01*
X004316Y004076D01*
X004312Y004093D01*
X004310Y004110D01*
X009810Y005660D02*
X009810Y006860D01*
X009812Y006877D01*
X009816Y006894D01*
X009823Y006910D01*
X009833Y006924D01*
X009846Y006937D01*
X009860Y006947D01*
X009876Y006954D01*
X009893Y006958D01*
X009910Y006960D01*
X012610Y006960D01*
X012627Y006958D01*
X012644Y006954D01*
X012660Y006947D01*
X012674Y006937D01*
X012687Y006924D01*
X012697Y006910D01*
X012704Y006894D01*
X012708Y006877D01*
X012710Y006860D01*
X012710Y005660D01*
X012708Y005643D01*
X012704Y005626D01*
X012697Y005610D01*
X012687Y005596D01*
X012674Y005583D01*
X012660Y005573D01*
X012644Y005566D01*
X012627Y005562D01*
X012610Y005560D01*
X009910Y005560D01*
X009893Y005562D01*
X009876Y005566D01*
X009860Y005573D01*
X009846Y005583D01*
X009833Y005596D01*
X009823Y005610D01*
X009816Y005626D01*
X009812Y005643D01*
X009810Y005660D01*
X010660Y006260D02*
X011140Y006260D01*
X011390Y006260D02*
X011860Y006260D01*
X012060Y008260D02*
X010460Y008260D01*
X010460Y009260D01*
X012060Y009260D01*
X012060Y008260D01*
X011510Y008760D02*
X011260Y008760D01*
X011260Y009010D01*
X011260Y008760D02*
X011260Y008510D01*
X011260Y008760D02*
X010860Y008510D01*
X010860Y009010D01*
X011260Y008760D01*
X010660Y008760D01*
X010460Y010760D02*
X010460Y011760D01*
X012060Y011760D01*
X012060Y010760D01*
X010460Y010760D01*
X011010Y011260D02*
X011260Y011260D01*
X011260Y011010D01*
X011260Y011260D02*
X011260Y011510D01*
X011260Y011260D02*
X011660Y011510D01*
X011660Y011010D01*
X011260Y011260D01*
X011860Y011260D01*
X012060Y013260D02*
X010460Y013260D01*
X010460Y014260D01*
X012060Y014260D01*
X012060Y013260D01*
X011510Y013760D02*
X011260Y013760D01*
X011260Y014010D01*
X011260Y013760D02*
X011260Y013510D01*
X011260Y013760D02*
X010860Y013510D01*
X010860Y014010D01*
X011260Y013760D01*
X010660Y013760D01*
X010460Y015860D02*
X012060Y015860D01*
X012077Y015862D01*
X012094Y015866D01*
X012110Y015873D01*
X012124Y015883D01*
X012137Y015896D01*
X012147Y015910D01*
X012154Y015926D01*
X012158Y015943D01*
X012160Y015960D01*
X012160Y016560D01*
X012158Y016577D01*
X012154Y016594D01*
X012147Y016610D01*
X012137Y016624D01*
X012124Y016637D01*
X012110Y016647D01*
X012094Y016654D01*
X012077Y016658D01*
X012060Y016660D01*
X010460Y016660D01*
X010443Y016658D01*
X010426Y016654D01*
X010410Y016647D01*
X010396Y016637D01*
X010383Y016624D01*
X010373Y016610D01*
X010366Y016594D01*
X010362Y016577D01*
X010360Y016560D01*
X010360Y015960D01*
X010362Y015943D01*
X010366Y015926D01*
X010373Y015910D01*
X010383Y015896D01*
X010396Y015883D01*
X010410Y015873D01*
X010426Y015866D01*
X010443Y015862D01*
X010460Y015860D01*
X011010Y016260D02*
X011260Y016260D01*
X011260Y016510D01*
X011360Y016510D01*
X011260Y016260D02*
X011260Y016010D01*
X011260Y016260D02*
X011660Y016510D01*
X011660Y016010D01*
X011260Y016260D01*
X011860Y016260D01*
X012060Y018760D02*
X010460Y018760D01*
X010460Y019760D01*
X012060Y019760D01*
X012060Y018760D01*
X011660Y019010D02*
X011260Y019260D01*
X011260Y019010D01*
X011260Y019260D02*
X011010Y019260D01*
X011260Y019260D02*
X011260Y019510D01*
X011260Y019260D02*
X011660Y019510D01*
X011660Y019010D01*
X011860Y019260D02*
X011260Y019260D01*
X016910Y013960D02*
X019610Y013960D01*
X019627Y013958D01*
X019644Y013954D01*
X019660Y013947D01*
X019674Y013937D01*
X019687Y013924D01*
X019697Y013910D01*
X019704Y013894D01*
X019708Y013877D01*
X019710Y013860D01*
X019710Y012660D01*
X019708Y012643D01*
X019704Y012626D01*
X019697Y012610D01*
X019687Y012596D01*
X019674Y012583D01*
X019660Y012573D01*
X019644Y012566D01*
X019627Y012562D01*
X019610Y012560D01*
X016910Y012560D01*
X016893Y012562D01*
X016876Y012566D01*
X016860Y012573D01*
X016846Y012583D01*
X016833Y012596D01*
X016823Y012610D01*
X016816Y012626D01*
X016812Y012643D01*
X016810Y012660D01*
X016810Y013860D01*
X016812Y013877D01*
X016816Y013894D01*
X016823Y013910D01*
X016833Y013924D01*
X016846Y013937D01*
X016860Y013947D01*
X016876Y013954D01*
X016893Y013958D01*
X016910Y013960D01*
X017660Y013260D02*
X018140Y013260D01*
X018390Y013260D02*
X018860Y013260D01*
X019610Y011460D02*
X016910Y011460D01*
X016893Y011458D01*
X016876Y011454D01*
X016860Y011447D01*
X016846Y011437D01*
X016833Y011424D01*
X016823Y011410D01*
X016816Y011394D01*
X016812Y011377D01*
X016810Y011360D01*
X016810Y010160D01*
X016812Y010143D01*
X016816Y010126D01*
X016823Y010110D01*
X016833Y010096D01*
X016846Y010083D01*
X016860Y010073D01*
X016876Y010066D01*
X016893Y010062D01*
X016910Y010060D01*
X019610Y010060D01*
X019627Y010062D01*
X019644Y010066D01*
X019660Y010073D01*
X019674Y010083D01*
X019687Y010096D01*
X019697Y010110D01*
X019704Y010126D01*
X019708Y010143D01*
X019710Y010160D01*
X019710Y011360D01*
X019708Y011377D01*
X019704Y011394D01*
X019697Y011410D01*
X019687Y011424D01*
X019674Y011437D01*
X019660Y011447D01*
X019644Y011454D01*
X019627Y011458D01*
X019610Y011460D01*
X018860Y010760D02*
X018390Y010760D01*
X018140Y010760D02*
X017660Y010760D01*
X018160Y009210D02*
X019360Y009210D01*
X019377Y009208D01*
X019394Y009204D01*
X019410Y009197D01*
X019424Y009187D01*
X019437Y009174D01*
X019447Y009160D01*
X019454Y009144D01*
X019458Y009127D01*
X019460Y009110D01*
X019460Y006410D01*
X019458Y006393D01*
X019454Y006376D01*
X019447Y006360D01*
X019437Y006346D01*
X019424Y006333D01*
X019410Y006323D01*
X019394Y006316D01*
X019377Y006312D01*
X019360Y006310D01*
X018160Y006310D01*
X018143Y006312D01*
X018126Y006316D01*
X018110Y006323D01*
X018096Y006333D01*
X018083Y006346D01*
X018073Y006360D01*
X018066Y006376D01*
X018062Y006393D01*
X018060Y006410D01*
X018060Y009110D01*
X018062Y009127D01*
X018066Y009144D01*
X018073Y009160D01*
X018083Y009174D01*
X018096Y009187D01*
X018110Y009197D01*
X018126Y009204D01*
X018143Y009208D01*
X018160Y009210D01*
X018760Y008360D02*
X018760Y007890D01*
X018760Y007640D02*
X018760Y007160D01*
X019360Y005210D02*
X018160Y005210D01*
X018143Y005208D01*
X018126Y005204D01*
X018110Y005197D01*
X018096Y005187D01*
X018083Y005174D01*
X018073Y005160D01*
X018066Y005144D01*
X018062Y005127D01*
X018060Y005110D01*
X018060Y002410D01*
X018062Y002393D01*
X018066Y002376D01*
X018073Y002360D01*
X018083Y002346D01*
X018096Y002333D01*
X018110Y002323D01*
X018126Y002316D01*
X018143Y002312D01*
X018160Y002310D01*
X019360Y002310D01*
X019377Y002312D01*
X019394Y002316D01*
X019410Y002323D01*
X019424Y002333D01*
X019437Y002346D01*
X019447Y002360D01*
X019454Y002376D01*
X019458Y002393D01*
X019460Y002410D01*
X019460Y005110D01*
X019458Y005127D01*
X019454Y005144D01*
X019447Y005160D01*
X019437Y005174D01*
X019424Y005187D01*
X019410Y005197D01*
X019394Y005204D01*
X019377Y005208D01*
X019360Y005210D01*
X018760Y004360D02*
X018760Y003890D01*
X018760Y003640D02*
X018760Y003160D01*
X022810Y006110D02*
X022810Y006260D01*
X022860Y006310D01*
X022860Y008210D01*
X022810Y008260D01*
X022810Y008410D01*
X022812Y008427D01*
X022816Y008444D01*
X022823Y008460D01*
X022833Y008474D01*
X022846Y008487D01*
X022860Y008497D01*
X022876Y008504D01*
X022893Y008508D01*
X022910Y008510D01*
X023610Y008510D01*
X023627Y008508D01*
X023644Y008504D01*
X023660Y008497D01*
X023674Y008487D01*
X023687Y008474D01*
X023697Y008460D01*
X023704Y008444D01*
X023708Y008427D01*
X023710Y008410D01*
X023710Y008260D01*
X023660Y008210D01*
X023660Y006310D01*
X023710Y006260D01*
X023710Y006110D01*
X023708Y006093D01*
X023704Y006076D01*
X023697Y006060D01*
X023687Y006046D01*
X023674Y006033D01*
X023660Y006023D01*
X023644Y006016D01*
X023627Y006012D01*
X023610Y006010D01*
X022910Y006010D01*
X022893Y006012D01*
X022876Y006016D01*
X022860Y006023D01*
X022846Y006033D01*
X022833Y006046D01*
X022823Y006060D01*
X022816Y006076D01*
X022812Y006093D01*
X022810Y006110D01*
X015960Y010410D02*
X015960Y013110D01*
X015958Y013127D01*
X015954Y013144D01*
X015947Y013160D01*
X015937Y013174D01*
X015924Y013187D01*
X015910Y013197D01*
X015894Y013204D01*
X015877Y013208D01*
X015860Y013210D01*
X014660Y013210D01*
X014643Y013208D01*
X014626Y013204D01*
X014610Y013197D01*
X014596Y013187D01*
X014583Y013174D01*
X014573Y013160D01*
X014566Y013144D01*
X014562Y013127D01*
X014560Y013110D01*
X014560Y010410D01*
X014562Y010393D01*
X014566Y010376D01*
X014573Y010360D01*
X014583Y010346D01*
X014596Y010333D01*
X014610Y010323D01*
X014626Y010316D01*
X014643Y010312D01*
X014660Y010310D01*
X015860Y010310D01*
X015877Y010312D01*
X015894Y010316D01*
X015910Y010323D01*
X015924Y010333D01*
X015937Y010346D01*
X015947Y010360D01*
X015954Y010376D01*
X015958Y010393D01*
X015960Y010410D01*
X015260Y011160D02*
X015260Y011640D01*
X015260Y011890D02*
X015260Y012360D01*
X017960Y015360D02*
X019560Y015360D01*
X019577Y015362D01*
X019594Y015366D01*
X019610Y015373D01*
X019624Y015383D01*
X019637Y015396D01*
X019647Y015410D01*
X019654Y015426D01*
X019658Y015443D01*
X019660Y015460D01*
X019660Y016060D01*
X019658Y016077D01*
X019654Y016094D01*
X019647Y016110D01*
X019637Y016124D01*
X019624Y016137D01*
X019610Y016147D01*
X019594Y016154D01*
X019577Y016158D01*
X019560Y016160D01*
X017960Y016160D01*
X017943Y016158D01*
X017926Y016154D01*
X017910Y016147D01*
X017896Y016137D01*
X017883Y016124D01*
X017873Y016110D01*
X017866Y016094D01*
X017862Y016077D01*
X017860Y016060D01*
X017860Y015460D01*
X017862Y015443D01*
X017866Y015426D01*
X017873Y015410D01*
X017883Y015396D01*
X017896Y015383D01*
X017910Y015373D01*
X017926Y015366D01*
X017943Y015362D01*
X017960Y015360D01*
X018510Y015760D02*
X018760Y015760D01*
X018760Y016010D01*
X018860Y016010D01*
X018760Y015760D02*
X018760Y015510D01*
X018760Y015760D02*
X019160Y016010D01*
X019160Y015510D01*
X018760Y015760D01*
X019360Y015760D01*
X005210Y012410D02*
X005210Y012260D01*
X005160Y012210D01*
X005160Y010310D01*
X005210Y010260D01*
X005210Y010110D01*
X005208Y010093D01*
X005204Y010076D01*
X005197Y010060D01*
X005187Y010046D01*
X005174Y010033D01*
X005160Y010023D01*
X005144Y010016D01*
X005127Y010012D01*
X005110Y010010D01*
X004410Y010010D01*
X004393Y010012D01*
X004376Y010016D01*
X004360Y010023D01*
X004346Y010033D01*
X004333Y010046D01*
X004323Y010060D01*
X004316Y010076D01*
X004312Y010093D01*
X004310Y010110D01*
X004310Y010260D01*
X004360Y010310D01*
X004360Y012210D01*
X004310Y012260D01*
X004310Y012410D01*
X004312Y012427D01*
X004316Y012444D01*
X004323Y012460D01*
X004333Y012474D01*
X004346Y012487D01*
X004360Y012497D01*
X004376Y012504D01*
X004393Y012508D01*
X004410Y012510D01*
X005110Y012510D01*
X005127Y012508D01*
X005144Y012504D01*
X005160Y012497D01*
X005174Y012487D01*
X005187Y012474D01*
X005197Y012460D01*
X005204Y012444D01*
X005208Y012427D01*
X005210Y012410D01*
X003210Y012410D02*
X003210Y012260D01*
X003160Y012210D01*
X003160Y010310D01*
X003210Y010260D01*
X003210Y010110D01*
X003208Y010093D01*
X003204Y010076D01*
X003197Y010060D01*
X003187Y010046D01*
X003174Y010033D01*
X003160Y010023D01*
X003144Y010016D01*
X003127Y010012D01*
X003110Y010010D01*
X002410Y010010D01*
X002393Y010012D01*
X002376Y010016D01*
X002360Y010023D01*
X002346Y010033D01*
X002333Y010046D01*
X002323Y010060D01*
X002316Y010076D01*
X002312Y010093D01*
X002310Y010110D01*
X002310Y010260D01*
X002360Y010310D01*
X002360Y012210D01*
X002310Y012260D01*
X002310Y012410D01*
X002312Y012427D01*
X002316Y012444D01*
X002323Y012460D01*
X002333Y012474D01*
X002346Y012487D01*
X002360Y012497D01*
X002376Y012504D01*
X002393Y012508D01*
X002410Y012510D01*
X003110Y012510D01*
X003127Y012508D01*
X003144Y012504D01*
X003160Y012497D01*
X003174Y012487D01*
X003187Y012474D01*
X003197Y012460D01*
X003204Y012444D01*
X003208Y012427D01*
X003210Y012410D01*
D12*
X002760Y012860D02*
X002760Y013010D01*
X004760Y013010D02*
X004760Y012860D01*
X004760Y009660D02*
X004760Y009510D01*
X002760Y009510D02*
X002760Y009660D01*
X002760Y007010D02*
X002760Y006860D01*
X004760Y006860D02*
X004760Y007010D01*
X004760Y003660D02*
X004760Y003510D01*
X002760Y003510D02*
X002760Y003660D01*
X023260Y005510D02*
X023260Y005660D01*
X023260Y008860D02*
X023260Y009010D01*
D13*
X023835Y008225D02*
X024285Y008225D01*
X024285Y008075D02*
X024285Y008375D01*
X023985Y008075D02*
X023835Y008225D01*
X024285Y007914D02*
X024285Y007614D01*
X023835Y007614D01*
X018106Y012010D02*
X017806Y011710D01*
X017806Y011635D01*
X017646Y011635D02*
X017345Y011635D01*
X017496Y011635D02*
X017496Y012085D01*
X017345Y011935D01*
X017185Y012010D02*
X017110Y012085D01*
X016960Y012085D01*
X016885Y012010D01*
X016885Y011710D01*
X016960Y011635D01*
X017110Y011635D01*
X017185Y011710D01*
X017806Y012085D02*
X018106Y012085D01*
X018106Y012010D01*
X018031Y014135D02*
X017881Y014135D01*
X017806Y014210D01*
X017806Y014360D02*
X017956Y014435D01*
X018031Y014435D01*
X018106Y014360D01*
X018106Y014210D01*
X018031Y014135D01*
X017806Y014360D02*
X017806Y014585D01*
X018106Y014585D01*
X017496Y014585D02*
X017496Y014135D01*
X017646Y014135D02*
X017345Y014135D01*
X017185Y014210D02*
X017110Y014135D01*
X016960Y014135D01*
X016885Y014210D01*
X016885Y014510D01*
X016960Y014585D01*
X017110Y014585D01*
X017185Y014510D01*
X017345Y014435D02*
X017496Y014585D01*
X017885Y016285D02*
X018110Y016285D01*
X018185Y016360D01*
X018185Y016660D01*
X018110Y016735D01*
X017885Y016735D01*
X017885Y016285D01*
X018345Y016360D02*
X018420Y016285D01*
X018571Y016285D01*
X018646Y016360D01*
X018646Y016660D01*
X018571Y016735D01*
X018420Y016735D01*
X018345Y016660D01*
X018345Y016585D01*
X018420Y016510D01*
X018646Y016510D01*
X023377Y019525D02*
X023784Y019932D01*
X023784Y020034D01*
X023683Y020136D01*
X023479Y020136D01*
X023377Y020034D01*
X023377Y019525D02*
X023784Y019525D01*
X023784Y022325D02*
X023377Y022325D01*
X023581Y022325D02*
X023581Y022936D01*
X023377Y022732D01*
X012995Y022284D02*
X012995Y021877D01*
X012588Y022284D01*
X012486Y022284D01*
X012384Y022183D01*
X012384Y021979D01*
X012486Y021877D01*
X011246Y020385D02*
X010945Y020385D01*
X010785Y020310D02*
X010785Y020010D01*
X010710Y019935D01*
X010485Y019935D01*
X010485Y020385D01*
X010710Y020385D01*
X010785Y020310D01*
X010945Y020010D02*
X010945Y019935D01*
X010945Y020010D02*
X011246Y020310D01*
X011246Y020385D01*
X010195Y021877D02*
X010195Y022284D01*
X010195Y022081D02*
X009584Y022081D01*
X009788Y021877D01*
X010385Y017235D02*
X010610Y017235D01*
X010685Y017160D01*
X010685Y016860D01*
X010610Y016785D01*
X010385Y016785D01*
X010385Y017235D01*
X010845Y017085D02*
X010996Y017235D01*
X010996Y016785D01*
X011146Y016785D02*
X010845Y016785D01*
X011306Y016860D02*
X011306Y017160D01*
X011381Y017235D01*
X011531Y017235D01*
X011606Y017160D01*
X011306Y016860D01*
X011381Y016785D01*
X011531Y016785D01*
X011606Y016860D01*
X011606Y017160D01*
X011700Y013085D02*
X011850Y013085D01*
X011925Y013010D01*
X011925Y012935D01*
X011850Y012860D01*
X011700Y012860D01*
X011625Y012935D01*
X011625Y013010D01*
X011700Y013085D01*
X011700Y012860D02*
X011625Y012785D01*
X011625Y012710D01*
X011700Y012635D01*
X011850Y012635D01*
X011925Y012710D01*
X011925Y012785D01*
X011850Y012860D01*
X011464Y012710D02*
X011464Y013010D01*
X011389Y013085D01*
X011164Y013085D01*
X011164Y012635D01*
X011389Y012635D01*
X011464Y012710D01*
X011246Y012385D02*
X011096Y012310D01*
X010945Y012160D01*
X011171Y012160D01*
X011246Y012085D01*
X011246Y012010D01*
X011171Y011935D01*
X011020Y011935D01*
X010945Y012010D01*
X010945Y012160D01*
X010785Y012010D02*
X010710Y011935D01*
X010485Y011935D01*
X010485Y012385D01*
X010710Y012385D01*
X010785Y012310D01*
X010785Y012010D01*
X013935Y011606D02*
X014010Y011456D01*
X014160Y011306D01*
X014160Y011531D01*
X014235Y011606D01*
X014310Y011606D01*
X014385Y011531D01*
X014385Y011381D01*
X014310Y011306D01*
X014160Y011306D01*
X014385Y011146D02*
X014385Y010845D01*
X014385Y010996D02*
X013935Y010996D01*
X014085Y010845D01*
X014010Y010685D02*
X013935Y010610D01*
X013935Y010460D01*
X014010Y010385D01*
X014310Y010385D01*
X014385Y010460D01*
X014385Y010610D01*
X014310Y010685D01*
X011925Y008085D02*
X011625Y008085D01*
X011625Y007860D01*
X011775Y007935D01*
X011850Y007935D01*
X011925Y007860D01*
X011925Y007710D01*
X011850Y007635D01*
X011700Y007635D01*
X011625Y007710D01*
X011464Y007710D02*
X011464Y008010D01*
X011389Y008085D01*
X011164Y008085D01*
X011164Y007635D01*
X011389Y007635D01*
X011464Y007710D01*
X011106Y007510D02*
X011106Y007435D01*
X010806Y007135D01*
X011106Y007135D01*
X011106Y007510D02*
X011031Y007585D01*
X010881Y007585D01*
X010806Y007510D01*
X010496Y007585D02*
X010496Y007135D01*
X010646Y007135D02*
X010345Y007135D01*
X010185Y007210D02*
X010110Y007135D01*
X009960Y007135D01*
X009885Y007210D01*
X009885Y007510D01*
X009960Y007585D01*
X010110Y007585D01*
X010185Y007510D01*
X010345Y007435D02*
X010496Y007585D01*
X010435Y004625D02*
X010435Y004325D01*
X010135Y004625D01*
X010060Y004625D01*
X009985Y004550D01*
X009985Y004400D01*
X010060Y004325D01*
X010060Y004164D02*
X010360Y004164D01*
X010435Y004089D01*
X010435Y003939D01*
X010360Y003864D01*
X010060Y003864D01*
X009985Y003939D01*
X009985Y004089D01*
X010060Y004164D01*
X010285Y004014D02*
X010435Y004164D01*
X011610Y004585D02*
X011610Y002935D01*
X012210Y003207D02*
X012210Y003313D01*
X011822Y002806D02*
X011766Y002833D01*
X011712Y002864D01*
X011660Y002898D01*
X011610Y002935D01*
X012707Y002810D02*
X012764Y002839D01*
X012820Y002872D01*
X012873Y002907D01*
X012924Y002947D01*
X012972Y002989D01*
X013018Y003034D01*
X013061Y003081D01*
X013101Y003131D01*
X013138Y003184D01*
X013171Y003239D01*
X013202Y003295D01*
X013228Y003354D01*
X013251Y003414D01*
X013271Y003475D01*
X013286Y003537D01*
X013298Y003600D01*
X013306Y003664D01*
X013310Y003728D01*
X013310Y003792D01*
X013306Y003856D01*
X013298Y003920D01*
X013286Y003983D01*
X013271Y004045D01*
X013251Y004106D01*
X013228Y004166D01*
X013202Y004225D01*
X013171Y004281D01*
X013138Y004336D01*
X013101Y004389D01*
X013061Y004439D01*
X013018Y004486D01*
X012972Y004531D01*
X012924Y004573D01*
X012873Y004613D01*
X012820Y004648D01*
X012764Y004681D01*
X012707Y004710D01*
X012210Y004313D02*
X012210Y004207D01*
X011813Y004710D02*
X011759Y004683D01*
X011708Y004653D01*
X011658Y004620D01*
X011610Y004585D01*
X013485Y004475D02*
X013935Y004475D01*
X013935Y004325D02*
X013935Y004625D01*
X013635Y004325D02*
X013485Y004475D01*
X013485Y004164D02*
X013485Y003864D01*
X013485Y004014D02*
X013935Y004014D01*
X015110Y004585D02*
X015110Y002935D01*
X015710Y003207D02*
X015710Y003313D01*
X015322Y002806D02*
X015266Y002833D01*
X015212Y002864D01*
X015160Y002898D01*
X015110Y002935D01*
X016207Y002810D02*
X016264Y002839D01*
X016320Y002872D01*
X016373Y002907D01*
X016424Y002947D01*
X016472Y002989D01*
X016518Y003034D01*
X016561Y003081D01*
X016601Y003131D01*
X016638Y003184D01*
X016671Y003239D01*
X016702Y003295D01*
X016728Y003354D01*
X016751Y003414D01*
X016771Y003475D01*
X016786Y003537D01*
X016798Y003600D01*
X016806Y003664D01*
X016810Y003728D01*
X016810Y003792D01*
X016806Y003856D01*
X016798Y003920D01*
X016786Y003983D01*
X016771Y004045D01*
X016751Y004106D01*
X016728Y004166D01*
X016702Y004225D01*
X016671Y004281D01*
X016638Y004336D01*
X016601Y004389D01*
X016561Y004439D01*
X016518Y004486D01*
X016472Y004531D01*
X016424Y004573D01*
X016373Y004613D01*
X016320Y004648D01*
X016264Y004681D01*
X016207Y004710D01*
X015710Y004313D02*
X015710Y004207D01*
X015313Y004710D02*
X015259Y004683D01*
X015208Y004653D01*
X015158Y004620D01*
X015110Y004585D01*
X016985Y004550D02*
X016985Y004400D01*
X017060Y004325D01*
X016985Y004164D02*
X016985Y003864D01*
X016985Y004014D02*
X017435Y004014D01*
X017885Y003606D02*
X017885Y003306D01*
X017885Y003456D02*
X017435Y003456D01*
X017585Y003306D01*
X017885Y003146D02*
X017885Y002845D01*
X017885Y002996D02*
X017435Y002996D01*
X017585Y002845D01*
X017510Y002685D02*
X017435Y002610D01*
X017435Y002460D01*
X017510Y002385D01*
X017810Y002385D01*
X017885Y002460D01*
X017885Y002610D01*
X017810Y002685D01*
X017435Y004325D02*
X017135Y004625D01*
X017060Y004625D01*
X016985Y004550D01*
X017435Y004625D02*
X017435Y004325D01*
X017510Y006385D02*
X017810Y006385D01*
X017885Y006460D01*
X017885Y006610D01*
X017810Y006685D01*
X017885Y006845D02*
X017885Y007146D01*
X017885Y006996D02*
X017435Y006996D01*
X017585Y006845D01*
X017510Y006685D02*
X017435Y006610D01*
X017435Y006460D01*
X017510Y006385D01*
X017660Y007306D02*
X017660Y007606D01*
X017885Y007531D02*
X017435Y007531D01*
X017660Y007306D01*
X008710Y004313D02*
X008710Y004207D01*
X008313Y004710D02*
X008259Y004683D01*
X008208Y004653D01*
X008158Y004620D01*
X008110Y004585D01*
X008110Y002935D01*
X008710Y003207D02*
X008710Y003313D01*
X008322Y002806D02*
X008266Y002833D01*
X008212Y002864D01*
X008160Y002898D01*
X008110Y002935D01*
X009207Y002810D02*
X009264Y002839D01*
X009320Y002872D01*
X009373Y002907D01*
X009424Y002947D01*
X009472Y002989D01*
X009518Y003034D01*
X009561Y003081D01*
X009601Y003131D01*
X009638Y003184D01*
X009671Y003239D01*
X009702Y003295D01*
X009728Y003354D01*
X009751Y003414D01*
X009771Y003475D01*
X009786Y003537D01*
X009798Y003600D01*
X009806Y003664D01*
X009810Y003728D01*
X009810Y003792D01*
X009806Y003856D01*
X009798Y003920D01*
X009786Y003983D01*
X009771Y004045D01*
X009751Y004106D01*
X009728Y004166D01*
X009702Y004225D01*
X009671Y004281D01*
X009638Y004336D01*
X009601Y004389D01*
X009561Y004439D01*
X009518Y004486D01*
X009472Y004531D01*
X009424Y004573D01*
X009373Y004613D01*
X009320Y004648D01*
X009264Y004681D01*
X009207Y004710D01*
X005785Y005154D02*
X005335Y005154D01*
X005335Y005379D01*
X005410Y005454D01*
X005560Y005454D01*
X005635Y005379D01*
X005635Y005154D01*
X005635Y005304D02*
X005785Y005454D01*
X005785Y005614D02*
X005785Y005914D01*
X005785Y005764D02*
X005335Y005764D01*
X005485Y005614D01*
X005560Y006075D02*
X005410Y006225D01*
X005335Y006375D01*
X005560Y006300D02*
X005560Y006075D01*
X005710Y006075D01*
X005785Y006150D01*
X005785Y006300D01*
X005710Y006375D01*
X005635Y006375D01*
X005560Y006300D01*
X003785Y006300D02*
X003335Y006300D01*
X003560Y006075D01*
X003560Y006375D01*
X003785Y005914D02*
X003785Y005614D01*
X003785Y005764D02*
X003335Y005764D01*
X003485Y005614D01*
X003560Y005454D02*
X003635Y005379D01*
X003635Y005154D01*
X003635Y005304D02*
X003785Y005454D01*
X003560Y005454D02*
X003410Y005454D01*
X003335Y005379D01*
X003335Y005154D01*
X003785Y005154D01*
X003785Y011154D02*
X003335Y011154D01*
X003335Y011379D01*
X003410Y011454D01*
X003560Y011454D01*
X003635Y011379D01*
X003635Y011154D01*
X003635Y011304D02*
X003785Y011454D01*
X003785Y011614D02*
X003785Y011914D01*
X003785Y011764D02*
X003335Y011764D01*
X003485Y011614D01*
X003560Y012075D02*
X003335Y012075D01*
X003335Y012375D01*
X003485Y012300D02*
X003485Y012225D01*
X003560Y012075D01*
X003710Y012075D02*
X003785Y012150D01*
X003785Y012300D01*
X003710Y012375D01*
X003560Y012375D01*
X003485Y012300D01*
X005335Y012300D02*
X005335Y012150D01*
X005410Y012075D01*
X005560Y012225D02*
X005560Y012300D01*
X005635Y012375D01*
X005710Y012375D01*
X005785Y012300D01*
X005785Y012150D01*
X005710Y012075D01*
X005785Y011914D02*
X005785Y011614D01*
X005785Y011764D02*
X005335Y011764D01*
X005485Y011614D01*
X005410Y011454D02*
X005560Y011454D01*
X005635Y011379D01*
X005635Y011154D01*
X005635Y011304D02*
X005785Y011454D01*
X005785Y011154D02*
X005335Y011154D01*
X005335Y011379D01*
X005410Y011454D01*
X005335Y012300D02*
X005410Y012375D01*
X005485Y012375D01*
X005560Y012300D01*
D14*
X004760Y012680D03*
X004760Y013180D03*
X002760Y013180D03*
X002760Y012680D03*
X002760Y009840D03*
X002760Y009340D03*
X004760Y009340D03*
X004760Y009840D03*
X004760Y007180D03*
X004760Y006680D03*
X002760Y006680D03*
X002760Y007180D03*
X002760Y003840D03*
X002760Y003340D03*
X004760Y003340D03*
X004760Y003840D03*
X023260Y005340D03*
X023260Y005840D03*
X023260Y008680D03*
X023260Y009180D03*
D15*
X019010Y007890D02*
X018760Y007890D01*
X018510Y007890D01*
X018510Y007640D02*
X018760Y007640D01*
X019010Y007640D01*
X018390Y010510D02*
X018390Y010760D01*
X018390Y011010D01*
X018140Y011010D02*
X018140Y010760D01*
X018140Y010510D01*
X015510Y011640D02*
X015260Y011640D01*
X015010Y011640D01*
X015010Y011890D02*
X015260Y011890D01*
X015510Y011890D01*
X018140Y013010D02*
X018140Y013260D01*
X018140Y013510D01*
X018390Y013510D02*
X018390Y013260D01*
X018390Y013010D01*
X011390Y006510D02*
X011390Y006260D01*
X011390Y006010D01*
X011140Y006010D02*
X011140Y006260D01*
X011140Y006510D01*
X018510Y003890D02*
X018760Y003890D01*
X019010Y003890D01*
X019010Y003640D02*
X018760Y003640D01*
X018510Y003640D01*
D16*
X011810Y008760D03*
X010710Y011260D03*
X011810Y013760D03*
X010710Y019260D03*
D17*
X010085Y019260D03*
X012435Y019260D03*
X012435Y013760D03*
X010085Y013760D03*
X010085Y011260D03*
X012435Y011260D03*
X012435Y008760D03*
X010085Y008760D03*
D18*
X010610Y016260D03*
X018110Y015760D03*
D19*
X017485Y015760D03*
X020035Y015760D03*
X012535Y016260D03*
X009985Y016260D03*
D20*
X010305Y021709D02*
X010305Y022811D01*
X012215Y022811D01*
X012215Y021709D01*
X010305Y021709D01*
X023209Y022215D02*
X023209Y020305D01*
X024311Y020305D01*
X024311Y022215D01*
X023209Y022215D01*
D21*
X024530Y022127D02*
X024990Y022127D01*
X024530Y021820D01*
X024990Y021820D01*
X024990Y021666D02*
X024990Y021513D01*
X024990Y021589D02*
X024530Y021589D01*
X024530Y021513D02*
X024530Y021666D01*
X024530Y021359D02*
X024837Y021359D01*
X024990Y021206D01*
X024837Y021052D01*
X024530Y021052D01*
X011968Y023490D02*
X011661Y023490D01*
X011508Y023490D02*
X011508Y023107D01*
X011431Y023030D01*
X011278Y023030D01*
X011201Y023107D01*
X011201Y023490D01*
X011047Y023414D02*
X011047Y023107D01*
X010971Y023030D01*
X010817Y023030D01*
X010740Y023107D01*
X010740Y023414D01*
X010817Y023490D01*
X010971Y023490D01*
X011047Y023414D01*
X010587Y023490D02*
X010587Y023183D01*
X010433Y023030D01*
X010280Y023183D01*
X010280Y023490D01*
X011815Y023490D02*
X011815Y023030D01*
M02*
