G75*
G70*
%OFA0B0*%
%FSLAX24Y24*%
%IPPOS*%
%LPD*%
%AMOC8*
5,1,8,0,0,1.08239X$1,22.5*
%
%ADD10OC8,0.0600*%
%ADD11C,0.0600*%
%ADD12C,0.0740*%
%ADD13OC8,0.0674*%
%ADD14C,0.0730*%
D10*
X002760Y002760D03*
X004760Y002760D03*
X004760Y007760D03*
X004760Y008760D03*
X002760Y008760D03*
X002760Y007760D03*
X002760Y013760D03*
X004760Y013760D03*
X010260Y006260D03*
X012260Y006260D03*
X015260Y010760D03*
X017260Y010760D03*
X019260Y010760D03*
X018760Y008760D03*
X018760Y006760D03*
X018760Y004760D03*
X018760Y002760D03*
X023260Y004760D03*
X023260Y009760D03*
X019260Y013260D03*
X017260Y013260D03*
X015260Y012760D03*
D11*
X016500Y015760D02*
X017020Y015760D01*
X020500Y015760D02*
X021020Y015760D01*
X013520Y016260D02*
X013000Y016260D01*
X009520Y016260D02*
X009000Y016260D01*
X009020Y004760D02*
X008500Y004760D01*
X008500Y003760D02*
X009020Y003760D01*
X009020Y002760D02*
X008500Y002760D01*
X012000Y002760D02*
X012520Y002760D01*
X012520Y003760D02*
X012000Y003760D01*
X012000Y004760D02*
X012520Y004760D01*
X015500Y004760D02*
X016020Y004760D01*
X016020Y003760D02*
X015500Y003760D01*
X015500Y002760D02*
X016020Y002760D01*
D12*
X013260Y008760D03*
X013260Y011260D03*
X013260Y013760D03*
X009260Y013760D03*
X009260Y011260D03*
X009260Y008760D03*
X009260Y019260D03*
X013260Y019260D03*
D13*
X011760Y022260D03*
X010760Y022260D03*
X023760Y021760D03*
X023760Y020760D03*
D14*
X023260Y013260D03*
X023260Y001760D03*
M02*
