G75*
G70*
%OFA0B0*%
%FSLAX24Y24*%
%IPPOS*%
%LPD*%
%AMOC8*
5,1,8,0,0,1.08239X$1,22.5*
%
%ADD10C,0.0396*%
%ADD11C,0.0160*%
%ADD12C,0.1739*%
%ADD13C,0.1266*%
D10*
X005416Y001400D03*
X008960Y006715D03*
X008960Y010259D03*
X008960Y013802D03*
X008960Y024826D03*
X008960Y028369D03*
X008960Y031912D03*
X008960Y042936D03*
X008960Y046479D03*
X008960Y050023D03*
X008960Y061046D03*
X008960Y064589D03*
X008960Y068133D03*
X008960Y079156D03*
X008960Y082700D03*
X008960Y086243D03*
X008960Y097267D03*
X008960Y100810D03*
X008960Y104353D03*
X012424Y110259D03*
X012897Y104353D03*
X012897Y100810D03*
X012897Y097267D03*
X012897Y086243D03*
X012897Y082700D03*
X012897Y079156D03*
X012897Y068133D03*
X012897Y064589D03*
X012897Y061046D03*
X012897Y050023D03*
X012897Y046479D03*
X012897Y042936D03*
X012897Y031912D03*
X012897Y028211D03*
X012897Y024865D03*
X012897Y013802D03*
X012897Y010259D03*
X012897Y006715D03*
X012424Y001400D03*
X019983Y006715D03*
X019983Y010259D03*
X019983Y013802D03*
X019983Y024826D03*
X019983Y028369D03*
X019983Y031912D03*
X019983Y042936D03*
X019983Y046479D03*
X019983Y050023D03*
X019983Y061046D03*
X019983Y064589D03*
X019983Y068133D03*
X019983Y079156D03*
X019983Y082700D03*
X019983Y086243D03*
X019983Y097267D03*
X019983Y100810D03*
X019983Y104353D03*
X023920Y104353D03*
X024747Y101361D03*
X024747Y100259D03*
X023920Y100810D03*
X023920Y097267D03*
X025849Y100259D03*
X025849Y101361D03*
X027463Y110259D03*
X023920Y086243D03*
X023920Y082700D03*
X023920Y079156D03*
X023920Y068133D03*
X023920Y064589D03*
X023920Y061046D03*
X023920Y050023D03*
X023920Y046479D03*
X023920Y042936D03*
X023920Y031912D03*
X024668Y030889D03*
X024668Y029786D03*
X023920Y028369D03*
X023920Y024826D03*
X025771Y029786D03*
X025771Y030889D03*
X023920Y013802D03*
X023920Y010259D03*
X023920Y006715D03*
X027463Y001400D03*
X005416Y110259D03*
D11*
X000858Y111274D02*
X000858Y000976D01*
X032022Y000976D01*
X032022Y111274D01*
X000858Y111274D01*
X000858Y111208D02*
X032022Y111208D01*
X032022Y111049D02*
X000858Y111049D01*
X000858Y110891D02*
X032022Y110891D01*
X032022Y110732D02*
X000858Y110732D01*
X000858Y110574D02*
X005241Y110574D01*
X005213Y110562D02*
X005113Y110462D01*
X005058Y110330D01*
X005058Y110188D01*
X005113Y110056D01*
X005213Y109955D01*
X005345Y109901D01*
X005487Y109901D01*
X005619Y109955D01*
X005720Y110056D01*
X005774Y110188D01*
X005774Y110330D01*
X005720Y110462D01*
X005619Y110562D01*
X005487Y110617D01*
X005345Y110617D01*
X005213Y110562D01*
X005093Y110415D02*
X000858Y110415D01*
X000858Y110257D02*
X005058Y110257D01*
X005095Y110098D02*
X000858Y110098D01*
X000858Y109940D02*
X005250Y109940D01*
X005582Y109940D02*
X012258Y109940D01*
X012221Y109955D02*
X012353Y109901D01*
X012495Y109901D01*
X012627Y109955D01*
X012728Y110056D01*
X012782Y110188D01*
X012782Y110330D01*
X012728Y110462D01*
X012627Y110562D01*
X012495Y110617D01*
X012353Y110617D01*
X012221Y110562D01*
X012121Y110462D01*
X012066Y110330D01*
X012066Y110188D01*
X012121Y110056D01*
X012221Y109955D01*
X012103Y110098D02*
X005737Y110098D01*
X005774Y110257D02*
X012066Y110257D01*
X012101Y110415D02*
X005739Y110415D01*
X005591Y110574D02*
X012249Y110574D01*
X012599Y110574D02*
X027289Y110574D01*
X027261Y110562D02*
X027160Y110462D01*
X027105Y110330D01*
X027105Y110188D01*
X027160Y110056D01*
X027261Y109955D01*
X027392Y109901D01*
X027535Y109901D01*
X027666Y109955D01*
X027767Y110056D01*
X027822Y110188D01*
X027822Y110330D01*
X027767Y110462D01*
X027666Y110562D01*
X027535Y110617D01*
X027392Y110617D01*
X027261Y110562D01*
X027141Y110415D02*
X012747Y110415D01*
X012782Y110257D02*
X027105Y110257D01*
X027142Y110098D02*
X012745Y110098D01*
X012590Y109940D02*
X027297Y109940D01*
X027629Y109940D02*
X032022Y109940D01*
X032022Y110098D02*
X027785Y110098D01*
X027822Y110257D02*
X032022Y110257D01*
X032022Y110415D02*
X027786Y110415D01*
X027638Y110574D02*
X032022Y110574D01*
X032022Y109781D02*
X000858Y109781D01*
X000858Y109623D02*
X032022Y109623D01*
X032022Y109464D02*
X000858Y109464D01*
X000858Y109306D02*
X032022Y109306D01*
X032022Y109147D02*
X000858Y109147D01*
X000858Y108989D02*
X032022Y108989D01*
X032022Y108830D02*
X000858Y108830D01*
X000858Y108672D02*
X032022Y108672D01*
X032022Y108513D02*
X000858Y108513D01*
X000858Y108355D02*
X032022Y108355D01*
X032022Y108196D02*
X000858Y108196D01*
X000858Y108038D02*
X032022Y108038D01*
X032022Y107879D02*
X000858Y107879D01*
X000858Y107721D02*
X032022Y107721D01*
X032022Y107562D02*
X000858Y107562D01*
X000858Y107404D02*
X032022Y107404D01*
X032022Y107245D02*
X000858Y107245D01*
X000858Y107087D02*
X032022Y107087D01*
X032022Y106928D02*
X000858Y106928D01*
X000858Y106770D02*
X032022Y106770D01*
X032022Y106611D02*
X000858Y106611D01*
X000858Y106453D02*
X032022Y106453D01*
X032022Y106294D02*
X000858Y106294D01*
X000858Y106136D02*
X032022Y106136D01*
X032022Y105977D02*
X000858Y105977D01*
X000858Y105819D02*
X032022Y105819D01*
X032022Y105660D02*
X000858Y105660D01*
X000858Y105502D02*
X032022Y105502D01*
X032022Y105343D02*
X000858Y105343D01*
X000858Y105185D02*
X032022Y105185D01*
X032022Y105026D02*
X000858Y105026D01*
X000858Y104868D02*
X032022Y104868D01*
X032022Y104709D02*
X000858Y104709D01*
X000858Y104551D02*
X032022Y104551D01*
X032022Y104392D02*
X000858Y104392D01*
X000858Y104234D02*
X032022Y104234D01*
X032022Y104075D02*
X000858Y104075D01*
X000858Y103917D02*
X032022Y103917D01*
X032022Y103758D02*
X000858Y103758D01*
X000858Y103600D02*
X032022Y103600D01*
X032022Y103441D02*
X000858Y103441D01*
X000858Y103283D02*
X032022Y103283D01*
X032022Y103124D02*
X000858Y103124D01*
X000858Y102966D02*
X032022Y102966D01*
X032022Y102807D02*
X000858Y102807D01*
X000858Y102649D02*
X032022Y102649D01*
X032022Y102490D02*
X000858Y102490D01*
X000858Y102332D02*
X032022Y102332D01*
X032022Y102173D02*
X000858Y102173D01*
X000858Y102015D02*
X032022Y102015D01*
X032022Y101856D02*
X000858Y101856D01*
X000858Y101698D02*
X032022Y101698D01*
X032022Y101539D02*
X000858Y101539D01*
X000858Y101381D02*
X032022Y101381D01*
X032022Y101222D02*
X000858Y101222D01*
X000858Y101064D02*
X032022Y101064D01*
X032022Y100905D02*
X000858Y100905D01*
X000858Y100747D02*
X032022Y100747D01*
X032022Y100588D02*
X000858Y100588D01*
X000858Y100430D02*
X032022Y100430D01*
X032022Y100271D02*
X000858Y100271D01*
X000858Y100113D02*
X032022Y100113D01*
X032022Y099954D02*
X000858Y099954D01*
X000858Y099796D02*
X032022Y099796D01*
X032022Y099637D02*
X000858Y099637D01*
X000858Y099479D02*
X032022Y099479D01*
X032022Y099320D02*
X000858Y099320D01*
X000858Y099162D02*
X032022Y099162D01*
X032022Y099003D02*
X000858Y099003D01*
X000858Y098845D02*
X032022Y098845D01*
X032022Y098686D02*
X000858Y098686D01*
X000858Y098528D02*
X032022Y098528D01*
X032022Y098369D02*
X000858Y098369D01*
X000858Y098211D02*
X032022Y098211D01*
X032022Y098052D02*
X000858Y098052D01*
X000858Y097894D02*
X032022Y097894D01*
X032022Y097735D02*
X000858Y097735D01*
X000858Y097577D02*
X032022Y097577D01*
X032022Y097418D02*
X000858Y097418D01*
X000858Y097260D02*
X032022Y097260D01*
X032022Y097101D02*
X000858Y097101D01*
X000858Y096943D02*
X032022Y096943D01*
X032022Y096784D02*
X000858Y096784D01*
X000858Y096626D02*
X032022Y096626D01*
X032022Y096467D02*
X000858Y096467D01*
X000858Y096309D02*
X032022Y096309D01*
X032022Y096150D02*
X000858Y096150D01*
X000858Y095992D02*
X032022Y095992D01*
X032022Y095833D02*
X000858Y095833D01*
X000858Y095675D02*
X032022Y095675D01*
X032022Y095516D02*
X000858Y095516D01*
X000858Y095358D02*
X032022Y095358D01*
X032022Y095199D02*
X000858Y095199D01*
X000858Y095041D02*
X032022Y095041D01*
X032022Y094882D02*
X000858Y094882D01*
X000858Y094724D02*
X032022Y094724D01*
X032022Y094565D02*
X000858Y094565D01*
X000858Y094407D02*
X032022Y094407D01*
X032022Y094248D02*
X000858Y094248D01*
X000858Y094090D02*
X032022Y094090D01*
X032022Y093931D02*
X000858Y093931D01*
X000858Y093773D02*
X032022Y093773D01*
X032022Y093614D02*
X000858Y093614D01*
X000858Y093456D02*
X032022Y093456D01*
X032022Y093297D02*
X000858Y093297D01*
X000858Y093139D02*
X032022Y093139D01*
X032022Y092980D02*
X000858Y092980D01*
X000858Y092822D02*
X032022Y092822D01*
X032022Y092663D02*
X000858Y092663D01*
X000858Y092505D02*
X032022Y092505D01*
X032022Y092346D02*
X000858Y092346D01*
X000858Y092188D02*
X032022Y092188D01*
X032022Y092029D02*
X000858Y092029D01*
X000858Y091871D02*
X032022Y091871D01*
X032022Y091712D02*
X000858Y091712D01*
X000858Y091554D02*
X032022Y091554D01*
X032022Y091395D02*
X000858Y091395D01*
X000858Y091237D02*
X032022Y091237D01*
X032022Y091078D02*
X000858Y091078D01*
X000858Y090920D02*
X032022Y090920D01*
X032022Y090761D02*
X000858Y090761D01*
X000858Y090603D02*
X032022Y090603D01*
X032022Y090444D02*
X000858Y090444D01*
X000858Y090286D02*
X032022Y090286D01*
X032022Y090127D02*
X000858Y090127D01*
X000858Y089969D02*
X032022Y089969D01*
X032022Y089810D02*
X000858Y089810D01*
X000858Y089652D02*
X032022Y089652D01*
X032022Y089493D02*
X000858Y089493D01*
X000858Y089335D02*
X032022Y089335D01*
X032022Y089176D02*
X000858Y089176D01*
X000858Y089018D02*
X032022Y089018D01*
X032022Y088859D02*
X000858Y088859D01*
X000858Y088701D02*
X032022Y088701D01*
X032022Y088542D02*
X000858Y088542D01*
X000858Y088384D02*
X032022Y088384D01*
X032022Y088225D02*
X000858Y088225D01*
X000858Y088067D02*
X032022Y088067D01*
X032022Y087908D02*
X000858Y087908D01*
X000858Y087750D02*
X032022Y087750D01*
X032022Y087591D02*
X000858Y087591D01*
X000858Y087433D02*
X032022Y087433D01*
X032022Y087274D02*
X000858Y087274D01*
X000858Y087116D02*
X032022Y087116D01*
X032022Y086957D02*
X000858Y086957D01*
X000858Y086799D02*
X032022Y086799D01*
X032022Y086640D02*
X000858Y086640D01*
X000858Y086482D02*
X032022Y086482D01*
X032022Y086323D02*
X000858Y086323D01*
X000858Y086165D02*
X032022Y086165D01*
X032022Y086006D02*
X000858Y086006D01*
X000858Y085848D02*
X032022Y085848D01*
X032022Y085689D02*
X000858Y085689D01*
X000858Y085531D02*
X032022Y085531D01*
X032022Y085372D02*
X000858Y085372D01*
X000858Y085214D02*
X032022Y085214D01*
X032022Y085055D02*
X000858Y085055D01*
X000858Y084897D02*
X032022Y084897D01*
X032022Y084738D02*
X000858Y084738D01*
X000858Y084580D02*
X032022Y084580D01*
X032022Y084421D02*
X000858Y084421D01*
X000858Y084263D02*
X032022Y084263D01*
X032022Y084104D02*
X000858Y084104D01*
X000858Y083946D02*
X032022Y083946D01*
X032022Y083787D02*
X000858Y083787D01*
X000858Y083629D02*
X032022Y083629D01*
X032022Y083470D02*
X000858Y083470D01*
X000858Y083312D02*
X032022Y083312D01*
X032022Y083153D02*
X000858Y083153D01*
X000858Y082995D02*
X032022Y082995D01*
X032022Y082836D02*
X000858Y082836D01*
X000858Y082678D02*
X032022Y082678D01*
X032022Y082519D02*
X000858Y082519D01*
X000858Y082361D02*
X032022Y082361D01*
X032022Y082202D02*
X000858Y082202D01*
X000858Y082044D02*
X032022Y082044D01*
X032022Y081885D02*
X000858Y081885D01*
X000858Y081727D02*
X032022Y081727D01*
X032022Y081568D02*
X000858Y081568D01*
X000858Y081410D02*
X032022Y081410D01*
X032022Y081251D02*
X000858Y081251D01*
X000858Y081093D02*
X032022Y081093D01*
X032022Y080934D02*
X000858Y080934D01*
X000858Y080776D02*
X032022Y080776D01*
X032022Y080617D02*
X000858Y080617D01*
X000858Y080459D02*
X032022Y080459D01*
X032022Y080300D02*
X000858Y080300D01*
X000858Y080142D02*
X032022Y080142D01*
X032022Y079983D02*
X000858Y079983D01*
X000858Y079825D02*
X032022Y079825D01*
X032022Y079666D02*
X000858Y079666D01*
X000858Y079508D02*
X032022Y079508D01*
X032022Y079349D02*
X000858Y079349D01*
X000858Y079191D02*
X032022Y079191D01*
X032022Y079032D02*
X000858Y079032D01*
X000858Y078874D02*
X032022Y078874D01*
X032022Y078715D02*
X000858Y078715D01*
X000858Y078557D02*
X032022Y078557D01*
X032022Y078398D02*
X000858Y078398D01*
X000858Y078240D02*
X032022Y078240D01*
X032022Y078081D02*
X000858Y078081D01*
X000858Y077923D02*
X032022Y077923D01*
X032022Y077764D02*
X000858Y077764D01*
X000858Y077606D02*
X032022Y077606D01*
X032022Y077447D02*
X000858Y077447D01*
X000858Y077289D02*
X032022Y077289D01*
X032022Y077130D02*
X000858Y077130D01*
X000858Y076972D02*
X032022Y076972D01*
X032022Y076813D02*
X000858Y076813D01*
X000858Y076655D02*
X032022Y076655D01*
X032022Y076496D02*
X000858Y076496D01*
X000858Y076338D02*
X032022Y076338D01*
X032022Y076179D02*
X000858Y076179D01*
X000858Y076021D02*
X032022Y076021D01*
X032022Y075862D02*
X000858Y075862D01*
X000858Y075704D02*
X032022Y075704D01*
X032022Y075545D02*
X000858Y075545D01*
X000858Y075387D02*
X032022Y075387D01*
X032022Y075228D02*
X000858Y075228D01*
X000858Y075070D02*
X032022Y075070D01*
X032022Y074911D02*
X000858Y074911D01*
X000858Y074753D02*
X032022Y074753D01*
X032022Y074594D02*
X000858Y074594D01*
X000858Y074436D02*
X032022Y074436D01*
X032022Y074277D02*
X000858Y074277D01*
X000858Y074119D02*
X032022Y074119D01*
X032022Y073960D02*
X000858Y073960D01*
X000858Y073802D02*
X032022Y073802D01*
X032022Y073643D02*
X000858Y073643D01*
X000858Y073485D02*
X032022Y073485D01*
X032022Y073326D02*
X000858Y073326D01*
X000858Y073168D02*
X032022Y073168D01*
X032022Y073009D02*
X000858Y073009D01*
X000858Y072851D02*
X032022Y072851D01*
X032022Y072692D02*
X000858Y072692D01*
X000858Y072534D02*
X032022Y072534D01*
X032022Y072375D02*
X000858Y072375D01*
X000858Y072217D02*
X032022Y072217D01*
X032022Y072058D02*
X000858Y072058D01*
X000858Y071900D02*
X032022Y071900D01*
X032022Y071741D02*
X000858Y071741D01*
X000858Y071583D02*
X032022Y071583D01*
X032022Y071424D02*
X000858Y071424D01*
X000858Y071266D02*
X032022Y071266D01*
X032022Y071107D02*
X000858Y071107D01*
X000858Y070949D02*
X032022Y070949D01*
X032022Y070790D02*
X000858Y070790D01*
X000858Y070632D02*
X032022Y070632D01*
X032022Y070473D02*
X000858Y070473D01*
X000858Y070315D02*
X032022Y070315D01*
X032022Y070156D02*
X000858Y070156D01*
X000858Y069998D02*
X032022Y069998D01*
X032022Y069839D02*
X000858Y069839D01*
X000858Y069681D02*
X032022Y069681D01*
X032022Y069522D02*
X000858Y069522D01*
X000858Y069364D02*
X032022Y069364D01*
X032022Y069205D02*
X000858Y069205D01*
X000858Y069047D02*
X032022Y069047D01*
X032022Y068888D02*
X000858Y068888D01*
X000858Y068730D02*
X032022Y068730D01*
X032022Y068571D02*
X000858Y068571D01*
X000858Y068413D02*
X032022Y068413D01*
X032022Y068254D02*
X000858Y068254D01*
X000858Y068096D02*
X032022Y068096D01*
X032022Y067937D02*
X000858Y067937D01*
X000858Y067779D02*
X032022Y067779D01*
X032022Y067620D02*
X000858Y067620D01*
X000858Y067462D02*
X032022Y067462D01*
X032022Y067303D02*
X000858Y067303D01*
X000858Y067145D02*
X032022Y067145D01*
X032022Y066986D02*
X000858Y066986D01*
X000858Y066828D02*
X032022Y066828D01*
X032022Y066669D02*
X000858Y066669D01*
X000858Y066511D02*
X032022Y066511D01*
X032022Y066352D02*
X000858Y066352D01*
X000858Y066194D02*
X032022Y066194D01*
X032022Y066035D02*
X000858Y066035D01*
X000858Y065877D02*
X032022Y065877D01*
X032022Y065718D02*
X000858Y065718D01*
X000858Y065560D02*
X032022Y065560D01*
X032022Y065401D02*
X000858Y065401D01*
X000858Y065243D02*
X032022Y065243D01*
X032022Y065084D02*
X000858Y065084D01*
X000858Y064926D02*
X032022Y064926D01*
X032022Y064767D02*
X000858Y064767D01*
X000858Y064609D02*
X032022Y064609D01*
X032022Y064450D02*
X000858Y064450D01*
X000858Y064292D02*
X032022Y064292D01*
X032022Y064133D02*
X000858Y064133D01*
X000858Y063975D02*
X032022Y063975D01*
X032022Y063816D02*
X000858Y063816D01*
X000858Y063658D02*
X032022Y063658D01*
X032022Y063499D02*
X000858Y063499D01*
X000858Y063341D02*
X032022Y063341D01*
X032022Y063182D02*
X000858Y063182D01*
X000858Y063024D02*
X032022Y063024D01*
X032022Y062865D02*
X000858Y062865D01*
X000858Y062707D02*
X032022Y062707D01*
X032022Y062548D02*
X000858Y062548D01*
X000858Y062390D02*
X032022Y062390D01*
X032022Y062231D02*
X000858Y062231D01*
X000858Y062073D02*
X032022Y062073D01*
X032022Y061914D02*
X000858Y061914D01*
X000858Y061756D02*
X032022Y061756D01*
X032022Y061597D02*
X000858Y061597D01*
X000858Y061439D02*
X032022Y061439D01*
X032022Y061280D02*
X000858Y061280D01*
X000858Y061122D02*
X032022Y061122D01*
X032022Y060963D02*
X000858Y060963D01*
X000858Y060805D02*
X032022Y060805D01*
X032022Y060646D02*
X000858Y060646D01*
X000858Y060488D02*
X032022Y060488D01*
X032022Y060329D02*
X000858Y060329D01*
X000858Y060171D02*
X032022Y060171D01*
X032022Y060012D02*
X000858Y060012D01*
X000858Y059854D02*
X032022Y059854D01*
X032022Y059695D02*
X000858Y059695D01*
X000858Y059537D02*
X032022Y059537D01*
X032022Y059378D02*
X000858Y059378D01*
X000858Y059220D02*
X032022Y059220D01*
X032022Y059061D02*
X000858Y059061D01*
X000858Y058903D02*
X032022Y058903D01*
X032022Y058744D02*
X000858Y058744D01*
X000858Y058586D02*
X032022Y058586D01*
X032022Y058427D02*
X000858Y058427D01*
X000858Y058269D02*
X032022Y058269D01*
X032022Y058110D02*
X000858Y058110D01*
X000858Y057952D02*
X032022Y057952D01*
X032022Y057793D02*
X000858Y057793D01*
X000858Y057635D02*
X032022Y057635D01*
X032022Y057476D02*
X000858Y057476D01*
X000858Y057318D02*
X032022Y057318D01*
X032022Y057159D02*
X000858Y057159D01*
X000858Y057001D02*
X032022Y057001D01*
X032022Y056842D02*
X000858Y056842D01*
X000858Y056684D02*
X032022Y056684D01*
X032022Y056525D02*
X000858Y056525D01*
X000858Y056367D02*
X032022Y056367D01*
X032022Y056208D02*
X000858Y056208D01*
X000858Y056050D02*
X032022Y056050D01*
X032022Y055891D02*
X000858Y055891D01*
X000858Y055733D02*
X032022Y055733D01*
X032022Y055574D02*
X000858Y055574D01*
X000858Y055416D02*
X032022Y055416D01*
X032022Y055257D02*
X000858Y055257D01*
X000858Y055099D02*
X032022Y055099D01*
X032022Y054940D02*
X000858Y054940D01*
X000858Y054782D02*
X032022Y054782D01*
X032022Y054623D02*
X000858Y054623D01*
X000858Y054465D02*
X032022Y054465D01*
X032022Y054306D02*
X000858Y054306D01*
X000858Y054148D02*
X032022Y054148D01*
X032022Y053989D02*
X000858Y053989D01*
X000858Y053831D02*
X032022Y053831D01*
X032022Y053672D02*
X000858Y053672D01*
X000858Y053514D02*
X032022Y053514D01*
X032022Y053355D02*
X000858Y053355D01*
X000858Y053197D02*
X032022Y053197D01*
X032022Y053038D02*
X000858Y053038D01*
X000858Y052880D02*
X032022Y052880D01*
X032022Y052721D02*
X000858Y052721D01*
X000858Y052563D02*
X032022Y052563D01*
X032022Y052404D02*
X000858Y052404D01*
X000858Y052246D02*
X032022Y052246D01*
X032022Y052087D02*
X000858Y052087D01*
X000858Y051929D02*
X032022Y051929D01*
X032022Y051770D02*
X000858Y051770D01*
X000858Y051612D02*
X032022Y051612D01*
X032022Y051453D02*
X000858Y051453D01*
X000858Y051295D02*
X032022Y051295D01*
X032022Y051136D02*
X000858Y051136D01*
X000858Y050978D02*
X032022Y050978D01*
X032022Y050819D02*
X000858Y050819D01*
X000858Y050661D02*
X032022Y050661D01*
X032022Y050502D02*
X000858Y050502D01*
X000858Y050344D02*
X032022Y050344D01*
X032022Y050185D02*
X000858Y050185D01*
X000858Y050027D02*
X032022Y050027D01*
X032022Y049868D02*
X000858Y049868D01*
X000858Y049710D02*
X032022Y049710D01*
X032022Y049551D02*
X000858Y049551D01*
X000858Y049393D02*
X032022Y049393D01*
X032022Y049234D02*
X000858Y049234D01*
X000858Y049076D02*
X032022Y049076D01*
X032022Y048917D02*
X000858Y048917D01*
X000858Y048759D02*
X032022Y048759D01*
X032022Y048600D02*
X000858Y048600D01*
X000858Y048442D02*
X032022Y048442D01*
X032022Y048283D02*
X000858Y048283D01*
X000858Y048125D02*
X032022Y048125D01*
X032022Y047966D02*
X000858Y047966D01*
X000858Y047808D02*
X032022Y047808D01*
X032022Y047649D02*
X000858Y047649D01*
X000858Y047491D02*
X032022Y047491D01*
X032022Y047332D02*
X000858Y047332D01*
X000858Y047174D02*
X032022Y047174D01*
X032022Y047015D02*
X000858Y047015D01*
X000858Y046857D02*
X032022Y046857D01*
X032022Y046698D02*
X000858Y046698D01*
X000858Y046540D02*
X032022Y046540D01*
X032022Y046381D02*
X000858Y046381D01*
X000858Y046223D02*
X032022Y046223D01*
X032022Y046064D02*
X000858Y046064D01*
X000858Y045906D02*
X032022Y045906D01*
X032022Y045747D02*
X000858Y045747D01*
X000858Y045589D02*
X032022Y045589D01*
X032022Y045430D02*
X000858Y045430D01*
X000858Y045272D02*
X032022Y045272D01*
X032022Y045113D02*
X000858Y045113D01*
X000858Y044955D02*
X032022Y044955D01*
X032022Y044796D02*
X000858Y044796D01*
X000858Y044638D02*
X032022Y044638D01*
X032022Y044479D02*
X000858Y044479D01*
X000858Y044321D02*
X032022Y044321D01*
X032022Y044162D02*
X000858Y044162D01*
X000858Y044004D02*
X032022Y044004D01*
X032022Y043845D02*
X000858Y043845D01*
X000858Y043687D02*
X032022Y043687D01*
X032022Y043528D02*
X000858Y043528D01*
X000858Y043370D02*
X032022Y043370D01*
X032022Y043211D02*
X000858Y043211D01*
X000858Y043053D02*
X032022Y043053D01*
X032022Y042894D02*
X000858Y042894D01*
X000858Y042736D02*
X032022Y042736D01*
X032022Y042577D02*
X000858Y042577D01*
X000858Y042419D02*
X032022Y042419D01*
X032022Y042260D02*
X000858Y042260D01*
X000858Y042102D02*
X032022Y042102D01*
X032022Y041943D02*
X000858Y041943D01*
X000858Y041785D02*
X032022Y041785D01*
X032022Y041626D02*
X000858Y041626D01*
X000858Y041468D02*
X032022Y041468D01*
X032022Y041309D02*
X000858Y041309D01*
X000858Y041151D02*
X032022Y041151D01*
X032022Y040992D02*
X000858Y040992D01*
X000858Y040834D02*
X032022Y040834D01*
X032022Y040675D02*
X000858Y040675D01*
X000858Y040517D02*
X032022Y040517D01*
X032022Y040358D02*
X000858Y040358D01*
X000858Y040200D02*
X032022Y040200D01*
X032022Y040041D02*
X000858Y040041D01*
X000858Y039883D02*
X032022Y039883D01*
X032022Y039724D02*
X000858Y039724D01*
X000858Y039566D02*
X032022Y039566D01*
X032022Y039407D02*
X000858Y039407D01*
X000858Y039249D02*
X032022Y039249D01*
X032022Y039090D02*
X000858Y039090D01*
X000858Y038932D02*
X032022Y038932D01*
X032022Y038773D02*
X000858Y038773D01*
X000858Y038615D02*
X032022Y038615D01*
X032022Y038456D02*
X000858Y038456D01*
X000858Y038298D02*
X032022Y038298D01*
X032022Y038139D02*
X000858Y038139D01*
X000858Y037981D02*
X032022Y037981D01*
X032022Y037822D02*
X000858Y037822D01*
X000858Y037664D02*
X032022Y037664D01*
X032022Y037505D02*
X000858Y037505D01*
X000858Y037347D02*
X032022Y037347D01*
X032022Y037188D02*
X000858Y037188D01*
X000858Y037030D02*
X032022Y037030D01*
X032022Y036871D02*
X000858Y036871D01*
X000858Y036713D02*
X032022Y036713D01*
X032022Y036554D02*
X000858Y036554D01*
X000858Y036396D02*
X032022Y036396D01*
X032022Y036237D02*
X000858Y036237D01*
X000858Y036079D02*
X032022Y036079D01*
X032022Y035920D02*
X000858Y035920D01*
X000858Y035762D02*
X032022Y035762D01*
X032022Y035603D02*
X000858Y035603D01*
X000858Y035445D02*
X032022Y035445D01*
X032022Y035286D02*
X000858Y035286D01*
X000858Y035128D02*
X032022Y035128D01*
X032022Y034969D02*
X000858Y034969D01*
X000858Y034811D02*
X032022Y034811D01*
X032022Y034652D02*
X000858Y034652D01*
X000858Y034494D02*
X032022Y034494D01*
X032022Y034335D02*
X000858Y034335D01*
X000858Y034177D02*
X032022Y034177D01*
X032022Y034018D02*
X000858Y034018D01*
X000858Y033860D02*
X032022Y033860D01*
X032022Y033701D02*
X000858Y033701D01*
X000858Y033543D02*
X032022Y033543D01*
X032022Y033384D02*
X000858Y033384D01*
X000858Y033226D02*
X032022Y033226D01*
X032022Y033067D02*
X000858Y033067D01*
X000858Y032909D02*
X032022Y032909D01*
X032022Y032750D02*
X000858Y032750D01*
X000858Y032592D02*
X032022Y032592D01*
X032022Y032433D02*
X000858Y032433D01*
X000858Y032275D02*
X032022Y032275D01*
X032022Y032116D02*
X000858Y032116D01*
X000858Y031958D02*
X032022Y031958D01*
X032022Y031799D02*
X000858Y031799D01*
X000858Y031641D02*
X032022Y031641D01*
X032022Y031482D02*
X000858Y031482D01*
X000858Y031324D02*
X032022Y031324D01*
X032022Y031165D02*
X000858Y031165D01*
X000858Y031007D02*
X032022Y031007D01*
X032022Y030848D02*
X000858Y030848D01*
X000858Y030690D02*
X032022Y030690D01*
X032022Y030531D02*
X000858Y030531D01*
X000858Y030373D02*
X032022Y030373D01*
X032022Y030214D02*
X000858Y030214D01*
X000858Y030056D02*
X032022Y030056D01*
X032022Y029897D02*
X000858Y029897D01*
X000858Y029739D02*
X032022Y029739D01*
X032022Y029580D02*
X000858Y029580D01*
X000858Y029422D02*
X032022Y029422D01*
X032022Y029263D02*
X000858Y029263D01*
X000858Y029105D02*
X032022Y029105D01*
X032022Y028946D02*
X000858Y028946D01*
X000858Y028788D02*
X032022Y028788D01*
X032022Y028629D02*
X000858Y028629D01*
X000858Y028471D02*
X032022Y028471D01*
X032022Y028312D02*
X000858Y028312D01*
X000858Y028154D02*
X032022Y028154D01*
X032022Y027995D02*
X000858Y027995D01*
X000858Y027837D02*
X032022Y027837D01*
X032022Y027678D02*
X000858Y027678D01*
X000858Y027520D02*
X032022Y027520D01*
X032022Y027361D02*
X000858Y027361D01*
X000858Y027203D02*
X032022Y027203D01*
X032022Y027044D02*
X000858Y027044D01*
X000858Y026886D02*
X032022Y026886D01*
X032022Y026727D02*
X000858Y026727D01*
X000858Y026569D02*
X032022Y026569D01*
X032022Y026410D02*
X000858Y026410D01*
X000858Y026252D02*
X032022Y026252D01*
X032022Y026093D02*
X000858Y026093D01*
X000858Y025935D02*
X032022Y025935D01*
X032022Y025776D02*
X000858Y025776D01*
X000858Y025618D02*
X032022Y025618D01*
X032022Y025459D02*
X000858Y025459D01*
X000858Y025301D02*
X032022Y025301D01*
X032022Y025142D02*
X000858Y025142D01*
X000858Y024984D02*
X032022Y024984D01*
X032022Y024825D02*
X000858Y024825D01*
X000858Y024667D02*
X032022Y024667D01*
X032022Y024508D02*
X000858Y024508D01*
X000858Y024350D02*
X032022Y024350D01*
X032022Y024191D02*
X000858Y024191D01*
X000858Y024033D02*
X032022Y024033D01*
X032022Y023874D02*
X000858Y023874D01*
X000858Y023716D02*
X032022Y023716D01*
X032022Y023557D02*
X000858Y023557D01*
X000858Y023399D02*
X032022Y023399D01*
X032022Y023240D02*
X000858Y023240D01*
X000858Y023082D02*
X032022Y023082D01*
X032022Y022923D02*
X000858Y022923D01*
X000858Y022765D02*
X032022Y022765D01*
X032022Y022606D02*
X000858Y022606D01*
X000858Y022448D02*
X032022Y022448D01*
X032022Y022289D02*
X000858Y022289D01*
X000858Y022131D02*
X032022Y022131D01*
X032022Y021972D02*
X000858Y021972D01*
X000858Y021814D02*
X032022Y021814D01*
X032022Y021655D02*
X000858Y021655D01*
X000858Y021497D02*
X032022Y021497D01*
X032022Y021338D02*
X000858Y021338D01*
X000858Y021180D02*
X032022Y021180D01*
X032022Y021021D02*
X000858Y021021D01*
X000858Y020863D02*
X032022Y020863D01*
X032022Y020704D02*
X000858Y020704D01*
X000858Y020546D02*
X032022Y020546D01*
X032022Y020387D02*
X000858Y020387D01*
X000858Y020229D02*
X032022Y020229D01*
X032022Y020070D02*
X000858Y020070D01*
X000858Y019912D02*
X032022Y019912D01*
X032022Y019753D02*
X000858Y019753D01*
X000858Y019595D02*
X032022Y019595D01*
X032022Y019436D02*
X000858Y019436D01*
X000858Y019278D02*
X032022Y019278D01*
X032022Y019119D02*
X000858Y019119D01*
X000858Y018961D02*
X032022Y018961D01*
X032022Y018802D02*
X000858Y018802D01*
X000858Y018644D02*
X032022Y018644D01*
X032022Y018485D02*
X000858Y018485D01*
X000858Y018327D02*
X032022Y018327D01*
X032022Y018168D02*
X000858Y018168D01*
X000858Y018010D02*
X032022Y018010D01*
X032022Y017851D02*
X000858Y017851D01*
X000858Y017693D02*
X032022Y017693D01*
X032022Y017534D02*
X000858Y017534D01*
X000858Y017376D02*
X032022Y017376D01*
X032022Y017217D02*
X000858Y017217D01*
X000858Y017059D02*
X032022Y017059D01*
X032022Y016900D02*
X000858Y016900D01*
X000858Y016742D02*
X032022Y016742D01*
X032022Y016583D02*
X000858Y016583D01*
X000858Y016425D02*
X032022Y016425D01*
X032022Y016266D02*
X000858Y016266D01*
X000858Y016108D02*
X032022Y016108D01*
X032022Y015949D02*
X000858Y015949D01*
X000858Y015791D02*
X032022Y015791D01*
X032022Y015632D02*
X000858Y015632D01*
X000858Y015474D02*
X032022Y015474D01*
X032022Y015315D02*
X000858Y015315D01*
X000858Y015157D02*
X032022Y015157D01*
X032022Y014998D02*
X000858Y014998D01*
X000858Y014840D02*
X032022Y014840D01*
X032022Y014681D02*
X000858Y014681D01*
X000858Y014523D02*
X032022Y014523D01*
X032022Y014364D02*
X000858Y014364D01*
X000858Y014206D02*
X032022Y014206D01*
X032022Y014047D02*
X000858Y014047D01*
X000858Y013889D02*
X032022Y013889D01*
X032022Y013730D02*
X000858Y013730D01*
X000858Y013572D02*
X032022Y013572D01*
X032022Y013413D02*
X000858Y013413D01*
X000858Y013255D02*
X032022Y013255D01*
X032022Y013096D02*
X000858Y013096D01*
X000858Y012938D02*
X032022Y012938D01*
X032022Y012779D02*
X000858Y012779D01*
X000858Y012621D02*
X032022Y012621D01*
X032022Y012462D02*
X000858Y012462D01*
X000858Y012304D02*
X032022Y012304D01*
X032022Y012145D02*
X000858Y012145D01*
X000858Y011987D02*
X032022Y011987D01*
X032022Y011828D02*
X000858Y011828D01*
X000858Y011670D02*
X032022Y011670D01*
X032022Y011511D02*
X000858Y011511D01*
X000858Y011353D02*
X032022Y011353D01*
X032022Y011194D02*
X000858Y011194D01*
X000858Y011036D02*
X032022Y011036D01*
X032022Y010877D02*
X000858Y010877D01*
X000858Y010719D02*
X032022Y010719D01*
X032022Y010560D02*
X000858Y010560D01*
X000858Y010402D02*
X032022Y010402D01*
X032022Y010243D02*
X000858Y010243D01*
X000858Y010085D02*
X032022Y010085D01*
X032022Y009926D02*
X000858Y009926D01*
X000858Y009768D02*
X032022Y009768D01*
X032022Y009609D02*
X000858Y009609D01*
X000858Y009451D02*
X032022Y009451D01*
X032022Y009292D02*
X000858Y009292D01*
X000858Y009134D02*
X032022Y009134D01*
X032022Y008975D02*
X000858Y008975D01*
X000858Y008817D02*
X032022Y008817D01*
X032022Y008658D02*
X000858Y008658D01*
X000858Y008500D02*
X032022Y008500D01*
X032022Y008341D02*
X000858Y008341D01*
X000858Y008183D02*
X032022Y008183D01*
X032022Y008024D02*
X000858Y008024D01*
X000858Y007866D02*
X032022Y007866D01*
X032022Y007707D02*
X000858Y007707D01*
X000858Y007549D02*
X032022Y007549D01*
X032022Y007390D02*
X000858Y007390D01*
X000858Y007232D02*
X032022Y007232D01*
X032022Y007073D02*
X000858Y007073D01*
X000858Y006915D02*
X032022Y006915D01*
X032022Y006756D02*
X000858Y006756D01*
X000858Y006598D02*
X032022Y006598D01*
X032022Y006439D02*
X000858Y006439D01*
X000858Y006281D02*
X032022Y006281D01*
X032022Y006122D02*
X000858Y006122D01*
X000858Y005964D02*
X032022Y005964D01*
X032022Y005805D02*
X000858Y005805D01*
X000858Y005647D02*
X032022Y005647D01*
X032022Y005488D02*
X000858Y005488D01*
X000858Y005330D02*
X032022Y005330D01*
X032022Y005171D02*
X000858Y005171D01*
X000858Y005013D02*
X032022Y005013D01*
X032022Y004854D02*
X000858Y004854D01*
X000858Y004696D02*
X032022Y004696D01*
X032022Y004537D02*
X000858Y004537D01*
X000858Y004379D02*
X032022Y004379D01*
X032022Y004220D02*
X000858Y004220D01*
X000858Y004062D02*
X032022Y004062D01*
X032022Y003903D02*
X000858Y003903D01*
X000858Y003745D02*
X032022Y003745D01*
X032022Y003586D02*
X000858Y003586D01*
X000858Y003428D02*
X032022Y003428D01*
X032022Y003269D02*
X000858Y003269D01*
X000858Y003111D02*
X032022Y003111D01*
X032022Y002952D02*
X000858Y002952D01*
X000858Y002794D02*
X032022Y002794D01*
X032022Y002635D02*
X000858Y002635D01*
X000858Y002477D02*
X032022Y002477D01*
X032022Y002318D02*
X000858Y002318D01*
X000858Y002160D02*
X032022Y002160D01*
X032022Y002001D02*
X000858Y002001D01*
X000858Y001843D02*
X032022Y001843D01*
X032022Y001684D02*
X027686Y001684D01*
X027666Y001704D02*
X027535Y001759D01*
X027392Y001759D01*
X027261Y001704D01*
X027160Y001603D01*
X027105Y001472D01*
X027105Y001329D01*
X027160Y001198D01*
X027261Y001097D01*
X027392Y001042D01*
X027535Y001042D01*
X027666Y001097D01*
X027767Y001198D01*
X027822Y001329D01*
X027822Y001472D01*
X027767Y001603D01*
X027666Y001704D01*
X027799Y001526D02*
X032022Y001526D01*
X032022Y001367D02*
X027822Y001367D01*
X027772Y001209D02*
X032022Y001209D01*
X032022Y001050D02*
X027554Y001050D01*
X027373Y001050D02*
X012514Y001050D01*
X012495Y001042D02*
X012627Y001097D01*
X012728Y001198D01*
X012782Y001329D01*
X012782Y001472D01*
X012728Y001603D01*
X012627Y001704D01*
X012495Y001759D01*
X012353Y001759D01*
X012221Y001704D01*
X012121Y001603D01*
X012066Y001472D01*
X012066Y001329D01*
X012121Y001198D01*
X012221Y001097D01*
X012353Y001042D01*
X012495Y001042D01*
X012334Y001050D02*
X005506Y001050D01*
X005487Y001042D02*
X005619Y001097D01*
X005720Y001198D01*
X005774Y001329D01*
X005774Y001472D01*
X005720Y001603D01*
X005619Y001704D01*
X005487Y001759D01*
X005345Y001759D01*
X005213Y001704D01*
X005113Y001603D01*
X005058Y001472D01*
X005058Y001329D01*
X005113Y001198D01*
X005213Y001097D01*
X005345Y001042D01*
X005487Y001042D01*
X005326Y001050D02*
X000858Y001050D01*
X000858Y001209D02*
X005108Y001209D01*
X005058Y001367D02*
X000858Y001367D01*
X000858Y001526D02*
X005080Y001526D01*
X005194Y001684D02*
X000858Y001684D01*
X005639Y001684D02*
X012201Y001684D01*
X012088Y001526D02*
X005752Y001526D01*
X005774Y001367D02*
X012066Y001367D01*
X012116Y001209D02*
X005724Y001209D01*
X012647Y001684D02*
X027241Y001684D01*
X027128Y001526D02*
X012760Y001526D01*
X012782Y001367D02*
X027105Y001367D01*
X027155Y001209D02*
X012732Y001209D01*
D12*
X001873Y001597D03*
X002660Y038605D03*
X002660Y092936D03*
X030219Y092936D03*
X030219Y038605D03*
X031007Y001597D03*
D13*
X030219Y110554D03*
X002660Y110554D03*
M02*
