G75*
G70*
%OFA0B0*%
%FSLAX24Y24*%
%IPPOS*%
%LPD*%
%AMOC8*
5,1,8,0,0,1.08239X$1,22.5*
%
%ADD10R,0.2049X0.2049*%
%ADD11R,0.1080X0.0580*%
%ADD12C,0.0476*%
%ADD13C,0.2049*%
%ADD14C,0.1655*%
%ADD15R,0.0476X0.0476*%
D10*
X025219Y030337D03*
X029038Y028369D03*
X029038Y032306D03*
X028960Y098841D03*
X028960Y102778D03*
X025298Y100810D03*
D11*
X009708Y041223D03*
X009708Y039944D03*
X009708Y038566D03*
X011282Y039255D03*
X011282Y037877D03*
X011282Y040633D03*
D12*
X012424Y001400D03*
X005416Y001400D03*
X024668Y029786D03*
X024668Y030889D03*
X025771Y030889D03*
X025771Y029786D03*
X027463Y001400D03*
X025849Y100259D03*
X025849Y101361D03*
X024747Y101361D03*
X024747Y100259D03*
X027463Y110259D03*
X012424Y110259D03*
X005416Y110259D03*
D13*
X001873Y001597D03*
X002660Y038605D03*
X002660Y092936D03*
X030219Y092936D03*
X030219Y038605D03*
X031007Y001597D03*
D14*
X030219Y110554D03*
X002660Y110554D03*
D15*
X008960Y104353D03*
X008960Y100810D03*
X008960Y097267D03*
X008960Y086243D03*
X008960Y082700D03*
X008960Y079156D03*
X008960Y068133D03*
X008960Y064589D03*
X008960Y061046D03*
X008960Y050023D03*
X008960Y046479D03*
X008960Y042936D03*
X008960Y031912D03*
X008960Y028369D03*
X008960Y024826D03*
X008960Y013802D03*
X008960Y010259D03*
X008960Y006715D03*
X012897Y006715D03*
X012897Y010259D03*
X012897Y013802D03*
X012897Y024865D03*
X012897Y028211D03*
X012897Y031912D03*
X012897Y042936D03*
X012897Y046479D03*
X012897Y050023D03*
X012897Y061046D03*
X012897Y064589D03*
X012897Y068133D03*
X012897Y079156D03*
X012897Y082700D03*
X012897Y086243D03*
X012897Y097267D03*
X012897Y100810D03*
X012897Y104353D03*
X019983Y104353D03*
X019983Y100810D03*
X019983Y097267D03*
X019983Y086243D03*
X019983Y082700D03*
X019983Y079156D03*
X019983Y068133D03*
X019983Y064589D03*
X019983Y061046D03*
X019983Y050023D03*
X019983Y046479D03*
X019983Y042936D03*
X019983Y031912D03*
X019983Y028369D03*
X019983Y024826D03*
X019983Y013802D03*
X019983Y010259D03*
X019983Y006715D03*
X023920Y006715D03*
X023920Y010259D03*
X023920Y013802D03*
X023920Y024826D03*
X023920Y028369D03*
X023920Y031912D03*
X023920Y042936D03*
X023920Y046479D03*
X023920Y050023D03*
X023920Y061046D03*
X023920Y064589D03*
X023920Y068133D03*
X023920Y079156D03*
X023920Y082700D03*
X023920Y086243D03*
X023920Y097267D03*
X023920Y100810D03*
X023920Y104353D03*
M02*
