G75*
G70*
%OFA0B0*%
%FSLAX24Y24*%
%IPPOS*%
%LPD*%
%AMOC8*
5,1,8,0,0,1.08239X$1,22.5*
%
%ADD10C,0.0000*%
%ADD11R,0.0580X0.0750*%
%ADD12R,0.0940X0.0810*%
%ADD13R,0.1520X0.0730*%
%ADD14R,0.1520X0.0790*%
%ADD15R,0.1520X0.0780*%
%ADD16R,0.0980X0.1524*%
%ADD17R,0.0400X0.1140*%
%ADD18R,0.0290X0.0840*%
%ADD19R,0.0355X0.0240*%
%ADD20R,0.0352X0.0033*%
%ADD21R,0.2000X0.0900*%
%ADD22R,0.0394X0.0433*%
%ADD23R,0.0591X0.0512*%
%ADD24R,0.0433X0.0394*%
%ADD25R,0.0512X0.0591*%
%ADD26R,0.0354X0.0276*%
%ADD27R,0.0276X0.0354*%
%ADD28C,0.0240*%
%ADD29C,0.0396*%
%ADD30C,0.1523*%
%ADD31C,0.1524*%
D10*
X000100Y000100D02*
X000100Y000209D01*
X000350Y000209D01*
X000350Y000909D01*
X000100Y000909D01*
X000100Y004396D01*
X007907Y004396D01*
X008004Y004398D01*
X008101Y004405D01*
X008197Y004417D01*
X008292Y004433D01*
X008387Y004453D01*
X008481Y004478D01*
X008573Y004508D01*
X008664Y004542D01*
X008753Y004580D01*
X008840Y004622D01*
X008925Y004669D01*
X009008Y004719D01*
X009088Y004774D01*
X009166Y004832D01*
X009240Y004893D01*
X009312Y004958D01*
X009381Y005027D01*
X009446Y005099D01*
X009507Y005173D01*
X009565Y005251D01*
X009620Y005331D01*
X009670Y005414D01*
X009717Y005499D01*
X009759Y005586D01*
X009797Y005675D01*
X009831Y005766D01*
X009861Y005858D01*
X009886Y005952D01*
X009906Y006047D01*
X009922Y006142D01*
X009934Y006238D01*
X009941Y006335D01*
X009943Y006432D01*
X009943Y029861D01*
X010185Y029153D02*
X010185Y024753D01*
X010189Y020438D02*
X010189Y016038D01*
X010168Y011454D02*
X010168Y007054D01*
X001520Y001331D02*
X001522Y001381D01*
X001528Y001431D01*
X001538Y001481D01*
X001551Y001529D01*
X001568Y001577D01*
X001589Y001623D01*
X001613Y001667D01*
X001641Y001709D01*
X001672Y001749D01*
X001706Y001786D01*
X001743Y001821D01*
X001782Y001852D01*
X001823Y001881D01*
X001867Y001906D01*
X001913Y001928D01*
X001960Y001946D01*
X002008Y001960D01*
X002057Y001971D01*
X002107Y001978D01*
X002157Y001981D01*
X002208Y001980D01*
X002258Y001975D01*
X002308Y001966D01*
X002356Y001954D01*
X002404Y001937D01*
X002450Y001917D01*
X002495Y001894D01*
X002538Y001867D01*
X002578Y001837D01*
X002616Y001804D01*
X002651Y001768D01*
X002684Y001729D01*
X002713Y001688D01*
X002739Y001645D01*
X002762Y001600D01*
X002781Y001553D01*
X002796Y001505D01*
X002808Y001456D01*
X002816Y001406D01*
X002820Y001356D01*
X002820Y001306D01*
X002816Y001256D01*
X002808Y001206D01*
X002796Y001157D01*
X002781Y001109D01*
X002762Y001062D01*
X002739Y001017D01*
X002713Y000974D01*
X002684Y000933D01*
X002651Y000894D01*
X002616Y000858D01*
X002578Y000825D01*
X002538Y000795D01*
X002495Y000768D01*
X002450Y000745D01*
X002404Y000725D01*
X002356Y000708D01*
X002308Y000696D01*
X002258Y000687D01*
X002208Y000682D01*
X002157Y000681D01*
X002107Y000684D01*
X002057Y000691D01*
X002008Y000702D01*
X001960Y000716D01*
X001913Y000734D01*
X001867Y000756D01*
X001823Y000781D01*
X001782Y000810D01*
X001743Y000841D01*
X001706Y000876D01*
X001672Y000913D01*
X001641Y000953D01*
X001613Y000995D01*
X001589Y001039D01*
X001568Y001085D01*
X001551Y001133D01*
X001538Y001181D01*
X001528Y001231D01*
X001522Y001281D01*
X001520Y001331D01*
X001005Y000909D02*
X000855Y000909D01*
X000855Y000209D01*
X001005Y000209D01*
X000100Y000209D02*
X000100Y000909D01*
X000100Y000100D02*
X035720Y000100D01*
X035720Y004396D01*
X031783Y004396D01*
X031689Y004398D01*
X031596Y004405D01*
X031503Y004416D01*
X031410Y004432D01*
X031319Y004452D01*
X031228Y004476D01*
X031139Y004504D01*
X031051Y004537D01*
X030965Y004574D01*
X030881Y004615D01*
X030798Y004660D01*
X030718Y004709D01*
X030641Y004761D01*
X030566Y004817D01*
X030494Y004877D01*
X030424Y004940D01*
X030358Y005006D01*
X030295Y005076D01*
X030235Y005148D01*
X030179Y005223D01*
X030127Y005300D01*
X030078Y005381D01*
X030033Y005463D01*
X029992Y005547D01*
X029955Y005633D01*
X029922Y005721D01*
X029894Y005810D01*
X029870Y005901D01*
X029850Y005992D01*
X029834Y006085D01*
X029823Y006178D01*
X029816Y006271D01*
X029814Y006365D01*
X029815Y006365D02*
X029815Y029987D01*
X029814Y029987D02*
X029816Y030081D01*
X029823Y030174D01*
X029834Y030267D01*
X029850Y030360D01*
X029870Y030451D01*
X029894Y030542D01*
X029922Y030631D01*
X029955Y030719D01*
X029992Y030805D01*
X030033Y030889D01*
X030078Y030972D01*
X030127Y031052D01*
X030179Y031129D01*
X030235Y031204D01*
X030295Y031276D01*
X030358Y031346D01*
X030424Y031412D01*
X030494Y031475D01*
X030566Y031535D01*
X030641Y031591D01*
X030718Y031643D01*
X030798Y031692D01*
X030881Y031737D01*
X030965Y031778D01*
X031051Y031815D01*
X031139Y031848D01*
X031228Y031876D01*
X031319Y031900D01*
X031410Y031920D01*
X031503Y031936D01*
X031596Y031947D01*
X031689Y031954D01*
X031783Y031956D01*
X031783Y031955D02*
X035720Y031955D01*
X035720Y036252D01*
X000100Y036252D01*
X000100Y031955D01*
X007848Y031955D01*
X007848Y031956D02*
X007948Y031954D01*
X008047Y031947D01*
X008146Y031935D01*
X008244Y031918D01*
X008342Y031897D01*
X008438Y031871D01*
X008533Y031841D01*
X008627Y031806D01*
X008718Y031767D01*
X008808Y031723D01*
X008895Y031675D01*
X008981Y031623D01*
X009063Y031568D01*
X009143Y031508D01*
X009220Y031444D01*
X009294Y031377D01*
X009364Y031307D01*
X009431Y031233D01*
X009495Y031156D01*
X009555Y031076D01*
X009610Y030994D01*
X009662Y030908D01*
X009710Y030821D01*
X009754Y030731D01*
X009793Y030640D01*
X009828Y030546D01*
X009858Y030451D01*
X009884Y030355D01*
X009905Y030257D01*
X009922Y030159D01*
X009934Y030060D01*
X009941Y029961D01*
X009943Y029861D01*
X003020Y035081D02*
X003022Y035131D01*
X003028Y035181D01*
X003038Y035231D01*
X003051Y035279D01*
X003068Y035327D01*
X003089Y035373D01*
X003113Y035417D01*
X003141Y035459D01*
X003172Y035499D01*
X003206Y035536D01*
X003243Y035571D01*
X003282Y035602D01*
X003323Y035631D01*
X003367Y035656D01*
X003413Y035678D01*
X003460Y035696D01*
X003508Y035710D01*
X003557Y035721D01*
X003607Y035728D01*
X003657Y035731D01*
X003708Y035730D01*
X003758Y035725D01*
X003808Y035716D01*
X003856Y035704D01*
X003904Y035687D01*
X003950Y035667D01*
X003995Y035644D01*
X004038Y035617D01*
X004078Y035587D01*
X004116Y035554D01*
X004151Y035518D01*
X004184Y035479D01*
X004213Y035438D01*
X004239Y035395D01*
X004262Y035350D01*
X004281Y035303D01*
X004296Y035255D01*
X004308Y035206D01*
X004316Y035156D01*
X004320Y035106D01*
X004320Y035056D01*
X004316Y035006D01*
X004308Y034956D01*
X004296Y034907D01*
X004281Y034859D01*
X004262Y034812D01*
X004239Y034767D01*
X004213Y034724D01*
X004184Y034683D01*
X004151Y034644D01*
X004116Y034608D01*
X004078Y034575D01*
X004038Y034545D01*
X003995Y034518D01*
X003950Y034495D01*
X003904Y034475D01*
X003856Y034458D01*
X003808Y034446D01*
X003758Y034437D01*
X003708Y034432D01*
X003657Y034431D01*
X003607Y034434D01*
X003557Y034441D01*
X003508Y034452D01*
X003460Y034466D01*
X003413Y034484D01*
X003367Y034506D01*
X003323Y034531D01*
X003282Y034560D01*
X003243Y034591D01*
X003206Y034626D01*
X003172Y034663D01*
X003141Y034703D01*
X003113Y034745D01*
X003089Y034789D01*
X003068Y034835D01*
X003051Y034883D01*
X003038Y034931D01*
X003028Y034981D01*
X003022Y035031D01*
X003020Y035081D01*
X033020Y035081D02*
X033022Y035131D01*
X033028Y035181D01*
X033038Y035231D01*
X033051Y035279D01*
X033068Y035327D01*
X033089Y035373D01*
X033113Y035417D01*
X033141Y035459D01*
X033172Y035499D01*
X033206Y035536D01*
X033243Y035571D01*
X033282Y035602D01*
X033323Y035631D01*
X033367Y035656D01*
X033413Y035678D01*
X033460Y035696D01*
X033508Y035710D01*
X033557Y035721D01*
X033607Y035728D01*
X033657Y035731D01*
X033708Y035730D01*
X033758Y035725D01*
X033808Y035716D01*
X033856Y035704D01*
X033904Y035687D01*
X033950Y035667D01*
X033995Y035644D01*
X034038Y035617D01*
X034078Y035587D01*
X034116Y035554D01*
X034151Y035518D01*
X034184Y035479D01*
X034213Y035438D01*
X034239Y035395D01*
X034262Y035350D01*
X034281Y035303D01*
X034296Y035255D01*
X034308Y035206D01*
X034316Y035156D01*
X034320Y035106D01*
X034320Y035056D01*
X034316Y035006D01*
X034308Y034956D01*
X034296Y034907D01*
X034281Y034859D01*
X034262Y034812D01*
X034239Y034767D01*
X034213Y034724D01*
X034184Y034683D01*
X034151Y034644D01*
X034116Y034608D01*
X034078Y034575D01*
X034038Y034545D01*
X033995Y034518D01*
X033950Y034495D01*
X033904Y034475D01*
X033856Y034458D01*
X033808Y034446D01*
X033758Y034437D01*
X033708Y034432D01*
X033657Y034431D01*
X033607Y034434D01*
X033557Y034441D01*
X033508Y034452D01*
X033460Y034466D01*
X033413Y034484D01*
X033367Y034506D01*
X033323Y034531D01*
X033282Y034560D01*
X033243Y034591D01*
X033206Y034626D01*
X033172Y034663D01*
X033141Y034703D01*
X033113Y034745D01*
X033089Y034789D01*
X033068Y034835D01*
X033051Y034883D01*
X033038Y034931D01*
X033028Y034981D01*
X033022Y035031D01*
X033020Y035081D01*
X033020Y001331D02*
X033022Y001381D01*
X033028Y001431D01*
X033038Y001481D01*
X033051Y001529D01*
X033068Y001577D01*
X033089Y001623D01*
X033113Y001667D01*
X033141Y001709D01*
X033172Y001749D01*
X033206Y001786D01*
X033243Y001821D01*
X033282Y001852D01*
X033323Y001881D01*
X033367Y001906D01*
X033413Y001928D01*
X033460Y001946D01*
X033508Y001960D01*
X033557Y001971D01*
X033607Y001978D01*
X033657Y001981D01*
X033708Y001980D01*
X033758Y001975D01*
X033808Y001966D01*
X033856Y001954D01*
X033904Y001937D01*
X033950Y001917D01*
X033995Y001894D01*
X034038Y001867D01*
X034078Y001837D01*
X034116Y001804D01*
X034151Y001768D01*
X034184Y001729D01*
X034213Y001688D01*
X034239Y001645D01*
X034262Y001600D01*
X034281Y001553D01*
X034296Y001505D01*
X034308Y001456D01*
X034316Y001406D01*
X034320Y001356D01*
X034320Y001306D01*
X034316Y001256D01*
X034308Y001206D01*
X034296Y001157D01*
X034281Y001109D01*
X034262Y001062D01*
X034239Y001017D01*
X034213Y000974D01*
X034184Y000933D01*
X034151Y000894D01*
X034116Y000858D01*
X034078Y000825D01*
X034038Y000795D01*
X033995Y000768D01*
X033950Y000745D01*
X033904Y000725D01*
X033856Y000708D01*
X033808Y000696D01*
X033758Y000687D01*
X033708Y000682D01*
X033657Y000681D01*
X033607Y000684D01*
X033557Y000691D01*
X033508Y000702D01*
X033460Y000716D01*
X033413Y000734D01*
X033367Y000756D01*
X033323Y000781D01*
X033282Y000810D01*
X033243Y000841D01*
X033206Y000876D01*
X033172Y000913D01*
X033141Y000953D01*
X033113Y000995D01*
X033089Y001039D01*
X033068Y001085D01*
X033051Y001133D01*
X033038Y001181D01*
X033028Y001231D01*
X033022Y001281D01*
X033020Y001331D01*
D11*
X015823Y016290D03*
D12*
X016583Y016320D03*
D13*
X016293Y020240D03*
D14*
X016283Y024220D03*
D15*
X016263Y012435D03*
D16*
X010662Y009296D03*
X010692Y018265D03*
X010672Y026948D03*
D17*
X016263Y022995D03*
D18*
X016358Y021675D03*
D19*
X016285Y013446D03*
D20*
X016286Y014158D03*
D21*
X011199Y016498D03*
X011199Y018238D03*
X011199Y019978D03*
X011195Y025213D03*
X011195Y026953D03*
X011195Y028693D03*
X011178Y010994D03*
X011178Y009254D03*
X011178Y007514D03*
D22*
X016300Y015460D03*
X016300Y016130D03*
X016260Y023373D03*
X016260Y024042D03*
D23*
X016209Y022510D03*
X016209Y021841D03*
X016207Y021018D03*
X016207Y020348D03*
D24*
X016318Y015153D03*
X016987Y015153D03*
D25*
X017035Y013843D03*
X016366Y013843D03*
D26*
X016286Y014312D03*
X016286Y014824D03*
X016285Y013196D03*
X016285Y012685D03*
D27*
X016355Y021426D03*
X016867Y021426D03*
X016830Y023002D03*
X016318Y023002D03*
D28*
X016818Y023005D02*
X017183Y023005D01*
X016838Y023013D02*
X016818Y023005D01*
X016871Y021439D02*
X016861Y021435D01*
X017213Y021435D01*
X017410Y015180D02*
X016973Y015177D01*
X016994Y015177D01*
X016982Y013878D02*
X017526Y013878D01*
D29*
X017519Y013880D03*
X017410Y015180D03*
X017213Y021435D03*
X017183Y023005D03*
D30*
X013910Y026948D02*
X011183Y026948D01*
D31*
X013910Y026947D02*
X014022Y026944D01*
X014135Y026936D01*
X014246Y026923D01*
X014357Y026904D01*
X014467Y026880D01*
X014575Y026851D01*
X014683Y026817D01*
X014788Y026778D01*
X014891Y026734D01*
X014992Y026684D01*
X015091Y026631D01*
X015187Y026572D01*
X015280Y026509D01*
X015370Y026442D01*
X015457Y026370D01*
X015540Y026294D01*
X015619Y026215D01*
X015695Y026132D01*
X015767Y026045D01*
X015834Y025955D01*
X015897Y025862D01*
X015956Y025766D01*
X016009Y025667D01*
X016059Y025566D01*
X016103Y025463D01*
X016142Y025358D01*
X016176Y025250D01*
X016205Y025142D01*
X016229Y025032D01*
X016248Y024921D01*
X016261Y024810D01*
X016269Y024697D01*
X016272Y024585D01*
X016272Y024622D01*
X016292Y019841D02*
X016292Y018267D01*
X016292Y016692D01*
X016292Y018267D02*
X011203Y018267D01*
X016262Y012051D02*
X016262Y011658D01*
X016259Y011546D01*
X016251Y011433D01*
X016238Y011322D01*
X016219Y011211D01*
X016195Y011101D01*
X016166Y010993D01*
X016132Y010885D01*
X016093Y010780D01*
X016049Y010677D01*
X015999Y010576D01*
X015946Y010477D01*
X015887Y010381D01*
X015824Y010288D01*
X015757Y010198D01*
X015685Y010111D01*
X015609Y010028D01*
X015530Y009949D01*
X015447Y009873D01*
X015360Y009801D01*
X015270Y009734D01*
X015177Y009671D01*
X015081Y009612D01*
X014982Y009559D01*
X014881Y009509D01*
X014778Y009465D01*
X014673Y009426D01*
X014565Y009392D01*
X014457Y009363D01*
X014347Y009339D01*
X014236Y009320D01*
X014125Y009307D01*
X014012Y009299D01*
X013900Y009296D01*
X011173Y009296D01*
M02*
