%
M48
M72
T01C0.0236
T02C0.0866
T03C0.1339
%
T01
X5456Y1282
X8999Y6597
X8999Y10141
X8999Y13684
X7424Y23920
X8999Y28251
X8999Y31794
X8999Y42818
X8999Y46361
X8999Y49904
X8999Y60928
X8999Y64471
X8999Y68015
X8999Y79038
X8999Y82582
X8999Y86125
X8999Y97149
X8999Y100692
X8999Y104235
X12463Y110141
X12936Y104235
X12936Y100692
X12936Y97149
X15849Y100259
X15849Y101440
X17030Y101440
X17030Y100259
X20023Y100692
X20023Y97149
X20023Y104235
X23960Y104235
X23960Y100692
X23960Y97149
X23960Y86125
X23960Y82582
X23960Y79038
X23960Y68015
X23960Y64471
X23960Y60928
X23960Y49904
X23960Y46361
X23960Y42818
X23960Y31794
X23960Y28251
X23960Y24708
X24747Y15849
X24747Y14668
X25928Y14668
X25928Y15849
X23960Y13684
X23960Y10141
X23960Y6597
X27503Y1282
X20023Y6597
X20023Y10141
X20023Y13684
X20023Y24708
X20023Y28251
X20023Y31794
X20023Y42818
X20023Y46361
X20023Y49904
X20023Y60928
X20023Y64471
X20023Y68015
X20023Y79038
X20023Y82582
X20023Y86125
X12936Y86125
X12936Y82582
X12936Y79038
X12936Y68015
X12936Y64471
X12936Y60928
X12936Y49904
X12936Y46361
X12936Y42818
X12936Y31794
X12936Y28251
X12936Y24708
X12936Y13684
X12936Y10141
X12936Y6597
X12463Y1282
X5456Y110141
X27503Y110141
T02
X29078Y110141
X3881Y110141
T03
X1912Y1479
X2700Y21164
X2700Y74708
X2700Y92030
X30259Y92030
X30259Y74708
X30259Y21164
X31046Y1479
M30
